<svg width="120" height="120" viewBox="0 0 120 120" fill="none" xmlns="http://www.w3.org/2000/svg">
<path d="M27.1007 24.3679L58.8597 15.8581C70.4332 12.757 78.8168 17.816 82.0403 29.8461L90.8774 62.8267C94.1008 74.8568 89.3699 83.4298 77.7964 86.5309L46.0374 95.0407C34.4639 98.1418 26.1105 93.0747 22.887 81.0447L14.0499 48.064C10.8264 36.034 15.5272 27.469 27.1007 24.3679Z" fill="url(#paint0_linear_2001_628)"/>
<g filter="url(#filter0_f_2001_628)">
<path d="M35.2992 34.5464L56.8609 28.769C64.7183 26.6636 70.3482 29.8671 72.4274 37.6267L78.1274 58.8997C80.2066 66.6593 76.9328 72.2486 69.0754 74.3539L47.5136 80.1314C39.6562 82.2368 34.0469 79.0277 31.9677 71.2682L26.2676 49.9952C24.1884 42.2356 27.4418 36.6518 35.2992 34.5464Z" fill="#30AD31" fill-opacity="0.5"/>
</g>
<foreignObject x="7.2207" y="6.20306" width="128.776" height="128.776"><div xmlns="http://www.w3.org/1999/xhtml" style="backdrop-filter:blur(12px);clip-path:url(#bgblur_0_2001_628_clip_path);height:100%;width:100%"></div></foreignObject><g data-figma-bg-blur-radius="24">
<mask id="path-3-outside-1_2001_628" maskUnits="userSpaceOnUse" x="31.2207" y="30.2031" width="81" height="81" fill="black">
<rect fill="white" x="31.2207" y="30.2031" width="81" height="81"/>
<path d="M89.9632 31.2031H53.2144C39.7832 31.2031 32.2207 38.7655 32.2207 52.1967V88.9849C32.2207 102.337 39.7832 109.979 53.2144 109.979H90.0026C103.394 109.979 110.996 102.337 110.996 88.9849V52.1967C110.996 38.7655 103.355 31.2031 89.9632 31.2031Z"/>
</mask>
<path d="M89.9632 31.2031H53.2144C39.7832 31.2031 32.2207 38.7655 32.2207 52.1967V88.9849C32.2207 102.337 39.7832 109.979 53.2144 109.979H90.0026C103.394 109.979 110.996 102.337 110.996 88.9849V52.1967C110.996 38.7655 103.355 31.2031 89.9632 31.2031Z" fill="#72DC60" fill-opacity="0.35"/>
<path d="M89.9632 32.2031C90.5155 32.2031 90.9632 31.7553 90.9632 31.2031C90.9632 30.6508 90.5155 30.2031 89.9632 30.2031V31.2031V32.2031ZM89.9632 30.2031C89.4109 30.2031 88.9632 30.6508 88.9632 31.2031C88.9632 31.7553 89.4109 32.2031 89.9632 32.2031V31.2031V30.2031ZM89.9632 31.2031V30.2031H53.2144V31.2031V32.2031H89.9632V31.2031ZM53.2144 31.2031V30.2031C46.3145 30.2031 40.7811 32.1487 36.9737 35.9561C33.1663 39.7635 31.2207 45.2968 31.2207 52.1967H32.2207H33.2207C33.2207 45.6654 35.0563 40.7019 38.3879 37.3703C41.7196 34.0387 46.6831 32.2031 53.2144 32.2031V31.2031ZM32.2207 52.1967H31.2207V88.9849H32.2207H33.2207V52.1967H32.2207ZM32.2207 88.9849H31.2207C31.2207 95.8469 33.167 101.379 36.9728 105.195C40.7789 109.012 46.3117 110.979 53.2144 110.979V109.979V108.979C46.6858 108.979 41.7218 107.125 38.3889 103.783C35.0556 100.44 33.2207 95.4755 33.2207 88.9849H32.2207ZM53.2144 109.979V110.979H90.0026V109.979V108.979H53.2144V109.979ZM90.0026 109.979V110.979C96.8863 110.979 102.418 109.011 106.229 105.196C110.039 101.38 111.996 95.8482 111.996 88.9849H110.996H109.996C109.996 95.4741 108.152 100.439 104.814 103.782C101.475 107.125 96.5107 108.979 90.0026 108.979V109.979ZM110.996 88.9849H111.996V52.1967H110.996H109.996V88.9849H110.996ZM110.996 52.1967H111.996C111.996 45.294 110.029 39.7609 106.207 35.9546C102.386 32.149 96.844 30.2031 89.9632 30.2031V31.2031V32.2031C96.4742 32.2031 101.449 34.0384 104.796 37.3718C108.143 40.7045 109.996 45.6682 109.996 52.1967H110.996Z" fill="url(#paint1_linear_2001_628)" mask="url(#path-3-outside-1_2001_628)"/>
</g>
<foreignObject x="38.8838" y="37.9023" width="65.4097" height="65.3702"><div xmlns="http://www.w3.org/1999/xhtml" style="backdrop-filter:blur(7.5px);clip-path:url(#bgblur_1_2001_628_clip_path);height:100%;width:100%"></div></foreignObject><g filter="url(#filter2_d_2001_628)" data-figma-bg-blur-radius="15">
<mask id="path-5-inside-2_2001_628" fill="white">
<path d="M86.0242 73.8566H74.8381V85.0033C74.8381 86.8152 73.3807 88.2725 71.5689 88.2725C69.7571 88.2725 68.2997 86.8152 68.2997 85.0033V73.8566H57.153C55.3411 73.8172 53.8838 72.3598 53.8838 70.548C53.8838 69.6775 54.2383 68.8543 54.8291 68.2241C55.4593 67.6333 56.2864 67.2788 57.153 67.2788H68.2997V56.1715C68.2997 54.3596 69.7571 52.9023 71.5689 52.9023C73.3807 52.9023 74.8381 54.3596 74.8381 56.1715V67.2788H86.0242C87.836 67.2788 89.2934 68.7362 89.2934 70.548C89.2934 72.3598 87.836 73.8172 86.0242 73.8566Z"/>
</mask>
<path d="M86.0242 73.8566H74.8381V85.0033C74.8381 86.8152 73.3807 88.2725 71.5689 88.2725C69.7571 88.2725 68.2997 86.8152 68.2997 85.0033V73.8566H57.153C55.3411 73.8172 53.8838 72.3598 53.8838 70.548C53.8838 69.6775 54.2383 68.8543 54.8291 68.2241C55.4593 67.6333 56.2864 67.2788 57.153 67.2788H68.2997V56.1715C68.2997 54.3596 69.7571 52.9023 71.5689 52.9023C73.3807 52.9023 74.8381 54.3596 74.8381 56.1715V67.2788H86.0242C87.836 67.2788 89.2934 68.7362 89.2934 70.548C89.2934 72.3598 87.836 73.8172 86.0242 73.8566Z" fill="url(#paint2_linear_2001_628)"/>
<path d="M74.8381 73.8566V73.6566H74.6381V73.8566H74.8381ZM68.2997 73.8566H68.4997V73.6566H68.2997V73.8566ZM57.153 73.8566L57.1486 74.0566H57.153V73.8566ZM54.8291 68.2241L54.692 68.0779L54.6832 68.0873L54.8291 68.2241ZM68.2997 67.2788V67.4788H68.4997V67.2788H68.2997ZM74.8381 67.2788H74.6381V67.4788H74.8381V67.2788ZM86.0242 73.8566V73.6566H74.8381V73.8566V74.0566H86.0242V73.8566ZM74.8381 73.8566H74.6381V85.0033H74.8381H75.0381V73.8566H74.8381ZM74.8381 85.0033H74.6381C74.6381 86.7047 73.2703 88.0725 71.5689 88.0725V88.2725V88.4725C73.4912 88.4725 75.0381 86.9256 75.0381 85.0033H74.8381ZM71.5689 88.2725V88.0725C69.8675 88.0725 68.4997 86.7047 68.4997 85.0033H68.2997H68.0997C68.0997 86.9256 69.6466 88.4725 71.5689 88.4725V88.2725ZM68.2997 85.0033H68.4997V73.8566H68.2997H68.0997V85.0033H68.2997ZM68.2997 73.8566V73.6566H57.153V73.8566V74.0566H68.2997V73.8566ZM57.153 73.8566L57.1573 73.6566C55.4517 73.6195 54.0838 72.2486 54.0838 70.548H53.8838H53.6838C53.6838 72.4711 55.2306 74.0148 57.1486 74.0565L57.153 73.8566ZM53.8838 70.548H54.0838C54.0838 69.7326 54.4159 68.9573 54.975 68.3609L54.8291 68.2241L54.6832 68.0873C54.0606 68.7514 53.6838 69.6225 53.6838 70.548H53.8838ZM54.8291 68.2241L54.9659 68.37C55.5621 67.811 56.3414 67.4788 57.153 67.4788V67.2788V67.0788C56.2315 67.0788 55.3565 67.4556 54.6923 68.0782L54.8291 68.2241ZM57.153 67.2788V67.4788H68.2997V67.2788V67.0788H57.153V67.2788ZM68.2997 67.2788H68.4997V56.1715H68.2997H68.0997V67.2788H68.2997ZM68.2997 56.1715H68.4997C68.4997 54.4701 69.8675 53.1023 71.5689 53.1023V52.9023V52.7023C69.6466 52.7023 68.0997 54.2492 68.0997 56.1715H68.2997ZM71.5689 52.9023V53.1023C73.2703 53.1023 74.6381 54.4701 74.6381 56.1715H74.8381H75.0381C75.0381 54.2492 73.4912 52.7023 71.5689 52.7023V52.9023ZM74.8381 56.1715H74.6381V67.2788H74.8381H75.0381V56.1715H74.8381ZM74.8381 67.2788V67.4788H86.0242V67.2788V67.0788H74.8381V67.2788ZM86.0242 67.2788V67.4788C87.7256 67.4788 89.0934 68.8466 89.0934 70.548H89.2934H89.4934C89.4934 68.6257 87.9465 67.0788 86.0242 67.0788V67.2788ZM89.2934 70.548H89.0934C89.0934 72.2486 87.7255 73.6195 86.0199 73.6566L86.0242 73.8566L86.0286 74.0565C87.9466 74.0148 89.4934 72.4711 89.4934 70.548H89.2934Z" fill="url(#paint3_linear_2001_628)" fill-opacity="0.5" mask="url(#path-5-inside-2_2001_628)"/>
</g>
<defs>
<filter id="filter0_f_2001_628" x="9.65405" y="12.1368" width="85.0847" height="84.6262" filterUnits="userSpaceOnUse" color-interpolation-filters="sRGB">
<feFlood flood-opacity="0" result="BackgroundImageFix"/>
<feBlend mode="normal" in="SourceGraphic" in2="BackgroundImageFix" result="shape"/>
<feGaussianBlur stdDeviation="8" result="effect1_foregroundBlur_2001_628"/>
</filter>
<clipPath id="bgblur_0_2001_628_clip_path" transform="translate(-7.2207 -6.20306)"><path d="M89.9632 31.2031H53.2144C39.7832 31.2031 32.2207 38.7655 32.2207 52.1967V88.9849C32.2207 102.337 39.7832 109.979 53.2144 109.979H90.0026C103.394 109.979 110.996 102.337 110.996 88.9849V52.1967C110.996 38.7655 103.355 31.2031 89.9632 31.2031Z"/>
</clipPath><filter id="filter2_d_2001_628" x="38.8838" y="37.9023" width="65.4097" height="65.3702" filterUnits="userSpaceOnUse" color-interpolation-filters="sRGB">
<feFlood flood-opacity="0" result="BackgroundImageFix"/>
<feColorMatrix in="SourceAlpha" type="matrix" values="0 0 0 0 0 0 0 0 0 0 0 0 0 0 0 0 0 0 127 0" result="hardAlpha"/>
<feOffset dx="5" dy="5"/>
<feGaussianBlur stdDeviation="5"/>
<feColorMatrix type="matrix" values="0 0 0 0 0.454902 0 0 0 0 0.870588 0 0 0 0 0.376471 0 0 0 0.5 0"/>
<feBlend mode="normal" in2="BackgroundImageFix" result="effect1_dropShadow_2001_628"/>
<feBlend mode="normal" in="SourceGraphic" in2="effect1_dropShadow_2001_628" result="shape"/>
</filter>
<clipPath id="bgblur_1_2001_628_clip_path" transform="translate(-38.8838 -37.9023)"><path d="M86.0242 73.8566H74.8381V85.0033C74.8381 86.8152 73.3807 88.2725 71.5689 88.2725C69.7571 88.2725 68.2997 86.8152 68.2997 85.0033V73.8566H57.153C55.3411 73.8172 53.8838 72.3598 53.8838 70.548C53.8838 69.6775 54.2383 68.8543 54.8291 68.2241C55.4593 67.6333 56.2864 67.2788 57.153 67.2788H68.2997V56.1715C68.2997 54.3596 69.7571 52.9023 71.5689 52.9023C73.3807 52.9023 74.8381 54.3596 74.8381 56.1715V67.2788H86.0242C87.836 67.2788 89.2934 68.7362 89.2934 70.548C89.2934 72.3598 87.836 73.8172 86.0242 73.8566Z"/>
</clipPath><linearGradient id="paint0_linear_2001_628" x1="9.0001" y1="29.218" x2="74.1974" y2="72.1595" gradientUnits="userSpaceOnUse">
<stop stop-color="#9BF763"/>
<stop offset="1" stop-color="#26AB5B"/>
</linearGradient>
<linearGradient id="paint1_linear_2001_628" x1="44.7605" y1="40.3805" x2="95.0109" y2="102.617" gradientUnits="userSpaceOnUse">
<stop stop-color="white" stop-opacity="0.25"/>
<stop offset="1" stop-color="white" stop-opacity="0"/>
</linearGradient>
<linearGradient id="paint2_linear_2001_628" x1="86.7829" y1="59.2894" x2="47.34" y2="60.5769" gradientUnits="userSpaceOnUse">
<stop stop-color="white"/>
<stop offset="1" stop-color="white" stop-opacity="0.2"/>
</linearGradient>
<linearGradient id="paint3_linear_2001_628" x1="57.6982" y1="64.7673" x2="87.7658" y2="64.9335" gradientUnits="userSpaceOnUse">
<stop stop-color="white"/>
<stop offset="1" stop-color="white" stop-opacity="0"/>
</linearGradient>
</defs>
</svg>
