<svg width="120" height="120" viewBox="0 0 120 120" fill="none" xmlns="http://www.w3.org/2000/svg">
<foreignObject x="0.4104" y="-0.597595" width="113.772" height="113.771"><div xmlns="http://www.w3.org/1999/xhtml" style="backdrop-filter:blur(6.5px);clip-path:url(#bgblur_0_2001_619_clip_path);height:100%;width:100%"></div></foreignObject><path data-figma-bg-blur-radius="13" d="M64.8987 13.4341L29.3145 22.9689C16.3471 26.4435 10.9685 35.7585 14.4427 48.7247L23.9675 84.2717C27.4418 97.2379 36.7573 102.616 49.7248 99.141L85.309 89.6063C98.2764 86.1317 103.621 76.8257 100.147 63.8595L90.6221 28.3125C87.1478 15.3463 77.8661 9.95949 64.8987 13.4341Z" fill="url(#paint0_linear_2001_619)"/>
<g filter="url(#filter1_f_2001_619)">
<path fill-rule="evenodd" clip-rule="evenodd" d="M27.5553 38.4595C25.3668 41.596 24.658 45.2602 25.5581 48.6362L32.1894 73.5072C34.0696 80.5589 42.3007 84.4701 50.5901 82.2775L74.0621 76.0692C82.3515 73.8766 87.5432 66.3882 85.6698 59.3617L79.0385 34.4907C77.165 27.4642 68.9266 23.5254 60.6371 25.7179L37.1652 31.9262C33.1838 32.9793 29.7372 35.322 27.5553 38.4595Z" fill="#EF5641" fill-opacity="0.5"/>
</g>
<foreignObject x="17.1406" y="17.1055" width="110.859" height="110.859"><div xmlns="http://www.w3.org/1999/xhtml" style="backdrop-filter:blur(7.5px);clip-path:url(#bgblur_1_2001_619_clip_path);height:100%;width:100%"></div></foreignObject><g data-figma-bg-blur-radius="15">
<mask id="path-3-outside-1_2001_619" maskUnits="userSpaceOnUse" x="32.1406" y="32.1055" width="81" height="81" fill="black">
<rect fill="white" x="32.1406" y="32.1055" width="81" height="81"/>
<path d="M91.0058 33.1055H54.1698C40.7462 33.1055 33.1406 40.711 33.1406 54.1346V90.9356C33.1406 104.359 40.7462 111.965 54.1698 111.965H91.0058C104.429 111.965 112 104.359 112 90.9356V54.1346C112 40.711 104.429 33.1055 91.0058 33.1055Z"/>
</mask>
<path d="M91.0058 33.1055H54.1698C40.7462 33.1055 33.1406 40.711 33.1406 54.1346V90.9356C33.1406 104.359 40.7462 111.965 54.1698 111.965H91.0058C104.429 111.965 112 104.359 112 90.9356V54.1346C112 40.711 104.429 33.1055 91.0058 33.1055Z" fill="#FFAC95" fill-opacity="0.4"/>
<path d="M91.0058 34.1055C91.5581 34.1055 92.0058 33.6578 92.0058 33.1055C92.0058 32.5532 91.5581 32.1055 91.0058 32.1055V33.1055V34.1055ZM91.0058 32.1055C90.4535 32.1055 90.0058 32.5532 90.0058 33.1055C90.0058 33.6578 90.4535 34.1055 91.0058 34.1055V33.1055V32.1055ZM91.0058 33.1055V32.1055H54.1698V33.1055V34.1055H91.0058V33.1055ZM54.1698 33.1055V32.1055C47.272 32.1055 41.7306 34.0627 37.9142 37.8791C34.0979 41.6954 32.1406 47.2369 32.1406 54.1346H33.1406H34.1406C34.1406 47.6087 35.9861 42.6356 39.3284 39.2933C42.6708 35.951 47.6439 34.1055 54.1698 34.1055V33.1055ZM33.1406 54.1346H32.1406V90.9356H33.1406H34.1406V54.1346H33.1406ZM33.1406 90.9356H32.1406C32.1406 97.8333 34.0979 103.375 37.9142 107.191C41.7306 111.007 47.272 112.965 54.1698 112.965V111.965V110.965C47.6439 110.965 42.6708 109.119 39.3284 105.777C35.9861 102.435 34.1406 97.4615 34.1406 90.9356H33.1406ZM54.1698 111.965V112.965H91.0058V111.965V110.965H54.1698V111.965ZM91.0058 111.965V112.965C97.9035 112.965 103.437 111.007 107.245 107.19C111.052 103.373 113 97.832 113 90.9356H112H111C111 97.4627 109.162 102.436 105.829 105.778C102.495 109.119 97.5316 110.965 91.0058 110.965V111.965ZM112 90.9356H113V54.1346H112H111V90.9356H112ZM112 54.1346H113C113 47.2381 111.052 41.6967 107.245 37.8799C103.437 34.0628 97.9035 32.1055 91.0058 32.1055V33.1055V34.1055C97.5316 34.1055 102.495 35.9509 105.829 39.2924C109.162 42.6343 111 47.6075 111 54.1346H112Z" fill="url(#paint1_linear_2001_619)" mask="url(#path-3-outside-1_2001_619)"/>
</g>
<foreignObject x="39.8369" y="38.4941" width="65.4669" height="68.089"><div xmlns="http://www.w3.org/1999/xhtml" style="backdrop-filter:blur(7.5px);clip-path:url(#bgblur_2_2001_619_clip_path);height:100%;width:100%"></div></foreignObject><g filter="url(#filter3_d_2001_619)" data-figma-bg-blur-radius="15">
<path d="M69.6132 88.6259V63.5881L59.9135 73.3667C58.7306 74.5101 56.8774 74.5101 55.6945 73.3667C54.551 72.2232 54.551 70.3306 55.6945 69.1871L70.4806 54.3222C71.5846 53.2181 73.5561 53.2181 74.6602 54.3222L89.4463 69.1871C90.5897 70.3306 90.5897 72.2232 89.4463 73.3667C88.8548 73.9187 88.1017 74.2341 87.3565 74.2341C86.6073 74.2341 85.8187 73.9187 85.2667 73.3667L75.5276 63.5881V88.6259C75.5276 90.282 74.2264 91.5831 72.5704 91.5831C70.9538 91.5831 69.6132 90.282 69.6132 88.6259Z" fill="url(#paint2_linear_2001_619)"/>
<path d="M70.5518 54.3926C71.6167 53.3281 73.5239 53.3282 74.5889 54.3926L89.375 69.2578H89.376C90.4794 70.3615 90.4801 72.1894 89.3779 73.2939C88.803 73.8304 88.0736 74.1338 87.3564 74.1338C86.6335 74.1338 85.8708 73.8287 85.3379 73.2959L75.5986 63.5176L75.4277 63.3457V88.626C75.4277 90.2268 74.1711 91.4834 72.5703 91.4834C71.0081 91.4834 69.7129 90.2259 69.7129 88.626V63.3457L69.542 63.5176L59.8438 73.2949C58.6999 74.4004 56.9088 74.401 55.7646 73.2959H55.7656C54.7301 72.2604 54.665 70.5877 55.5713 69.4727L55.7656 69.2578L70.5518 54.3926Z" stroke="url(#paint3_linear_2001_619)" stroke-opacity="0.5" stroke-width="0.2"/>
</g>
<defs>
<clipPath id="bgblur_0_2001_619_clip_path" transform="translate(-0.4104 0.597595)"><path d="M64.8987 13.4341L29.3145 22.9689C16.3471 26.4435 10.9685 35.7585 14.4427 48.7247L23.9675 84.2717C27.4418 97.2379 36.7573 102.616 49.7248 99.141L85.309 89.6063C98.2764 86.1317 103.621 76.8257 100.147 63.8595L90.6221 28.3125C87.1478 15.3463 77.8661 9.95949 64.8987 13.4341Z"/>
</clipPath><filter id="filter1_f_2001_619" x="9.17749" y="9.11121" width="92.8746" height="89.7754" filterUnits="userSpaceOnUse" color-interpolation-filters="sRGB">
<feFlood flood-opacity="0" result="BackgroundImageFix"/>
<feBlend mode="normal" in="SourceGraphic" in2="BackgroundImageFix" result="shape"/>
<feGaussianBlur stdDeviation="8" result="effect1_foregroundBlur_2001_619"/>
</filter>
<clipPath id="bgblur_1_2001_619_clip_path" transform="translate(-17.1406 -17.1055)"><path d="M91.0058 33.1055H54.1698C40.7462 33.1055 33.1406 40.711 33.1406 54.1346V90.9356C33.1406 104.359 40.7462 111.965 54.1698 111.965H91.0058C104.429 111.965 112 104.359 112 90.9356V54.1346C112 40.711 104.429 33.1055 91.0058 33.1055Z"/>
</clipPath><filter id="filter3_d_2001_619" x="39.8369" y="38.4941" width="65.4669" height="68.089" filterUnits="userSpaceOnUse" color-interpolation-filters="sRGB">
<feFlood flood-opacity="0" result="BackgroundImageFix"/>
<feColorMatrix in="SourceAlpha" type="matrix" values="0 0 0 0 0 0 0 0 0 0 0 0 0 0 0 0 0 0 127 0" result="hardAlpha"/>
<feOffset dx="5" dy="5"/>
<feGaussianBlur stdDeviation="5"/>
<feColorMatrix type="matrix" values="0 0 0 0 1 0 0 0 0 0.447059 0 0 0 0 0.368627 0 0 0 0.5 0"/>
<feBlend mode="normal" in2="BackgroundImageFix" result="effect1_dropShadow_2001_619"/>
<feBlend mode="normal" in="SourceGraphic" in2="effect1_dropShadow_2001_619" result="shape"/>
</filter>
<clipPath id="bgblur_2_2001_619_clip_path" transform="translate(-39.8369 -38.4941)"><path d="M69.6132 88.6259V63.5881L59.9135 73.3667C58.7306 74.5101 56.8774 74.5101 55.6945 73.3667C54.551 72.2232 54.551 70.3306 55.6945 69.1871L70.4806 54.3222C71.5846 53.2181 73.5561 53.2181 74.6602 54.3222L89.4463 69.1871C90.5897 70.3306 90.5897 72.2232 89.4463 73.3667C88.8548 73.9187 88.1017 74.2341 87.3565 74.2341C86.6073 74.2341 85.8187 73.9187 85.2667 73.3667L75.5276 63.5881V88.6259C75.5276 90.282 74.2264 91.5831 72.5704 91.5831C70.9538 91.5831 69.6132 90.282 69.6132 88.6259Z"/>
</clipPath><linearGradient id="paint0_linear_2001_619" x1="64.2698" y1="59.8902" x2="6.05565" y2="110.374" gradientUnits="userSpaceOnUse">
<stop stop-color="#FFA78F"/>
<stop offset="1" stop-color="#F23E2C"/>
</linearGradient>
<linearGradient id="paint1_linear_2001_619" x1="45.6937" y1="42.2927" x2="95.9975" y2="104.595" gradientUnits="userSpaceOnUse">
<stop stop-color="white" stop-opacity="0.25"/>
<stop offset="1" stop-color="white" stop-opacity="0"/>
</linearGradient>
<linearGradient id="paint2_linear_2001_619" x1="87.7893" y1="60.3723" x2="48.2769" y2="61.5718" gradientUnits="userSpaceOnUse">
<stop stop-color="white"/>
<stop offset="1" stop-color="white" stop-opacity="0.2"/>
</linearGradient>
<linearGradient id="paint3_linear_2001_619" x1="88.7842" y1="73.3443" x2="54.2945" y2="74.6822" gradientUnits="userSpaceOnUse">
<stop stop-color="white"/>
<stop offset="1" stop-color="white" stop-opacity="0"/>
</linearGradient>
</defs>
</svg>
