<svg width="120" height="120" viewBox="0 0 120 120" fill="none" xmlns="http://www.w3.org/2000/svg">
<path fill-rule="evenodd" clip-rule="evenodd" d="M60.9928 48.115C65.1021 49.3591 68.7883 53.3464 68.7943 60.3268L67.0424 79.3563C66.1091 91.8255 57.5933 94.4461 47.679 91.445L20.7226 83.2845C10.7798 80.2746 3.94471 74.6154 9.13546 61.8269L15.9164 44.3208C18.7707 38.0048 23.8069 36.8584 27.9738 38.1197L60.9928 48.115ZM49.3835 26.774C57.9783 29.3457 63.6221 37.5296 62.1791 45.3284L62.0276 45.9724C62.0141 46.031 62.1122 46.0379 61.8826 45.9992L57.1941 44.5335C57.1535 44.2991 57.158 44.0641 57.207 43.8407C58.5016 38.3138 54.5493 32.337 48.3789 30.4904C42.2082 28.6441 36.1558 31.6274 34.8608 37.1543C34.8527 37.3821 34.8006 37.6024 34.7079 37.8049L29.9869 36.3928C29.9951 36.165 30.0472 35.9447 30.1399 35.7422C32.3004 28.1579 40.7886 24.2023 49.3835 26.774Z" fill="url(#paint0_linear_2001_400)"/>
<g opacity="0.5" filter="url(#filter0_f_2001_400)">
<path d="M32.3777 58.1154C34.2701 53.0191 39.6617 50.3064 44.9064 51.8117C50.1512 53.317 53.5782 58.5608 52.87 63.997L52.1006 69.9033C51.2172 76.6852 44.7106 80.9818 38.1676 79.1039C31.6247 77.2259 27.9606 70.0103 30.3215 63.6524L32.3777 58.1154Z" fill="#0062FF"/>
</g>
<foreignObject x="29.5428" y="6.46344" width="70.3895" height="72.5449"><div xmlns="http://www.w3.org/1999/xhtml" style="backdrop-filter:blur(7.5px);clip-path:url(#bgblur_0_2001_400_clip_path);height:100%;width:100%"></div></foreignObject><g filter="url(#filter1_d_2001_400)" data-figma-bg-blur-radius="15">
<path fill-rule="evenodd" clip-rule="evenodd" d="M80.5001 51.4467C82.4133 50.8772 84.3136 51.8853 84.7438 53.6982C85.1738 55.5112 83.9714 57.4432 82.0583 58.0129C80.145 58.5824 78.2447 57.5745 77.8146 55.7614C77.3846 53.9484 78.587 52.0164 80.5001 51.4467ZM58.7169 57.2838C60.6302 56.7143 62.5297 57.7225 62.9597 59.5356C63.3894 61.3486 62.1872 63.2798 60.274 63.8493C58.3606 64.4188 56.4612 63.4106 56.0312 61.5975C55.6012 59.7843 56.8036 57.8533 58.7169 57.2838ZM44.8392 45.0861C43.0177 35.4703 49.7723 25.4528 60.1526 22.375C70.5329 19.2973 80.8465 24.2539 83.5344 33.6128L83.7389 34.4757C83.8168 34.7487 84.9931 40.4141 84.9298 40.7025L79.3632 42.3523C79.1928 42.1203 77.5986 35.6669 77.5296 35.3933C75.9094 28.5757 68.5538 24.8409 61.1011 27.0506C53.6485 29.2604 48.9201 36.5785 50.5403 43.396C50.6556 43.6516 52.194 50.1216 52.2066 50.4044L46.5046 52.0948C46.3891 51.8385 44.8522 45.3706 44.8392 45.0861Z" fill="url(#paint1_linear_2001_400)"/>
</g>
<foreignObject x="13.4738" y="11.5732" width="123.482" height="116.552"><div xmlns="http://www.w3.org/1999/xhtml" style="backdrop-filter:blur(12px);clip-path:url(#bgblur_1_2001_400_clip_path);height:100%;width:100%"></div></foreignObject><g data-figma-bg-blur-radius="24">
<mask id="path-4-outside-1_2001_400" maskUnits="userSpaceOnUse" x="32.1218" y="28.6735" width="84.5667" height="82.1024" fill="black">
<rect fill="white" x="32.1218" y="28.6735" width="84.5667" height="82.1024"/>
<path fill-rule="evenodd" clip-rule="evenodd" d="M47.6885 48.8371L87.236 37.0809C92.158 35.6178 98.0949 37.3435 101.799 44.7234L110.064 66.034C115.703 79.854 108.257 88.3849 96.3829 91.9147L64.097 101.512C52.1881 105.051 42.0999 103.687 40.7089 86.6506L38.4685 63.5483C38.0829 54.9379 42.6978 50.3207 47.6885 48.8371ZM80.5998 51.3839C78.687 51.9534 77.4854 53.885 77.9156 55.6983C78.3461 57.5113 80.2453 58.5202 82.1581 57.9511C84.0712 57.3818 85.2735 55.4498 84.8433 53.6364C84.413 51.823 82.5129 50.8146 80.5998 51.3839ZM58.8161 57.2206C56.9033 57.79 55.7016 59.7208 56.1317 61.534C56.562 63.3474 58.4612 64.356 60.3742 63.7869C62.2872 63.2176 63.4895 61.2864 63.0596 59.4731C62.6293 57.6597 60.7292 56.6513 58.8161 57.2206Z"/>
</mask>
<path fill-rule="evenodd" clip-rule="evenodd" d="M47.6885 48.8371L87.236 37.0809C92.158 35.6178 98.0949 37.3435 101.799 44.7234L110.064 66.034C115.703 79.854 108.257 88.3849 96.3829 91.9147L64.097 101.512C52.1881 105.051 42.0999 103.687 40.7089 86.6506L38.4685 63.5483C38.0829 54.9379 42.6978 50.3207 47.6885 48.8371ZM80.5998 51.3839C78.687 51.9534 77.4854 53.885 77.9156 55.6983C78.3461 57.5113 80.2453 58.5202 82.1581 57.9511C84.0712 57.3818 85.2735 55.4498 84.8433 53.6364C84.413 51.823 82.5129 50.8146 80.5998 51.3839ZM58.8161 57.2206C56.9033 57.79 55.7016 59.7208 56.1317 61.534C56.562 63.3474 58.4612 64.356 60.3742 63.7869C62.2872 63.2176 63.4895 61.2864 63.0596 59.4731C62.6293 57.6597 60.7292 56.6513 58.8161 57.2206Z" fill="#3EA0FE" fill-opacity="0.35"/>
<path d="M47.6885 48.8371L47.5129 47.8473L47.5128 47.8473L47.6885 48.8371ZM87.236 37.0809L87.0605 36.0911L87.0604 36.0911L87.236 37.0809ZM101.799 44.7234L102.704 44.2547C102.693 44.2267 102.681 44.1994 102.668 44.1728L101.799 44.7234ZM110.064 66.034L109.159 66.5027C109.161 66.5079 109.163 66.513 109.166 66.5181L110.064 66.034ZM96.3829 91.9147L96.5585 92.9045L96.5585 92.9045L96.3829 91.9147ZM64.097 101.512L64.2725 102.501L64.2725 102.501L64.097 101.512ZM40.7089 86.6506L41.6776 86.463C41.6772 86.4577 41.6767 86.4524 41.6762 86.4471L40.7089 86.6506ZM38.4685 63.5483L37.4973 63.6971C37.4982 63.7154 37.4995 63.7336 37.5012 63.7518L38.4685 63.5483ZM80.5998 51.3839L80.4239 50.3942L80.4238 50.3942L80.5998 51.3839ZM77.9156 55.6983L76.9711 56.0393L76.9712 56.0394L77.9156 55.6983ZM82.1581 57.9511L82.334 58.9409L82.334 58.9409L82.1581 57.9511ZM84.8433 53.6364L85.7878 53.2955L85.7878 53.2955L84.8433 53.6364ZM58.8161 57.2206L58.6402 56.2309L58.6402 56.2309L58.8161 57.2206ZM56.1317 61.534L55.1872 61.8749L55.1872 61.875L56.1317 61.534ZM60.3742 63.7869L60.5501 64.7766L60.5501 64.7766L60.3742 63.7869ZM63.0596 59.4731L64.0041 59.1323L64.0041 59.1322L63.0596 59.4731ZM47.6885 48.8371L47.8641 49.8269L87.4117 38.0707L87.236 37.0809L87.0604 36.0911L47.5129 47.8473L47.6885 48.8371ZM87.236 37.0809L87.4116 38.0707C91.8662 36.7466 97.4002 38.2405 100.931 45.2739L101.799 44.7234L102.668 44.1728C98.7896 36.4466 92.4498 34.4891 87.0605 36.0911L87.236 37.0809ZM101.799 44.7234L100.895 45.1921L109.159 66.5027L110.064 66.034L110.969 65.5653L102.704 44.2547L101.799 44.7234ZM110.064 66.034L109.166 66.5181C111.902 73.2265 111.388 78.4296 108.991 82.3334C106.558 86.2966 102.022 89.1965 96.2073 90.9249L96.3829 91.9147L96.5585 92.9045C102.619 91.1031 107.742 87.9727 110.591 83.333C113.476 78.6339 113.864 72.6616 110.963 65.5499L110.064 66.034ZM96.3829 91.9147L96.2073 90.9249L63.9214 100.522L64.097 101.512L64.2725 102.501L96.5585 92.9045L96.3829 91.9147ZM64.097 101.512L63.9214 100.522C58.0305 102.273 52.814 102.735 48.9326 100.853C45.1254 99.008 42.3565 94.7776 41.6776 86.463L40.7089 86.6506L39.7402 86.8382C40.4523 95.5603 43.4229 100.53 47.9849 102.741C52.4725 104.916 58.2545 104.29 64.2725 102.501L64.097 101.512ZM40.7089 86.6506L41.6762 86.4471L39.4358 63.3448L38.4685 63.5483L37.5012 63.7518L39.7416 86.8541L40.7089 86.6506ZM38.4685 63.5483L39.4397 63.3995C39.2561 59.3005 40.263 56.2592 41.816 54.0895C43.3757 51.9105 45.5559 50.513 47.8641 49.8269L47.6885 48.8371L47.5128 47.8473C44.8304 48.6447 42.2078 50.2976 40.3088 52.9508C38.4031 55.6132 37.2953 59.1857 37.4973 63.6971L38.4685 63.5483ZM80.5998 51.3839L80.4238 50.3942C78.0307 51.1067 76.3922 53.5993 76.9711 56.0393L77.9156 55.6983L78.8601 55.3573C78.5786 54.1708 79.3432 52.8001 80.7758 52.3736L80.5998 51.3839ZM77.9156 55.6983L76.9712 56.0394C77.5374 58.4246 79.9728 59.6433 82.334 58.9409L82.1581 57.9511L81.9823 56.9614C80.5178 57.3971 79.1547 56.5981 78.8601 55.3572L77.9156 55.6983ZM82.1581 57.9511L82.334 58.9409C84.7272 58.2287 86.3667 55.7358 85.7878 53.2955L84.8433 53.6364L83.8988 53.9774C84.1802 55.1639 83.4152 56.535 81.9823 56.9614L82.1581 57.9511ZM84.8433 53.6364L85.7878 53.2955C85.2216 50.9095 82.7851 49.6916 80.4239 50.3942L80.5998 51.3839L80.7757 52.3736C82.2408 51.9377 83.6044 52.7366 83.8988 53.9774L84.8433 53.6364ZM58.8161 57.2206L58.6402 56.2309C56.2473 56.9432 54.6084 59.4347 55.1872 61.8749L56.1317 61.534L57.0762 61.1931C56.7948 60.0068 57.5592 58.6368 58.9921 58.2103L58.8161 57.2206ZM56.1317 61.534L55.1872 61.875C55.7533 64.2607 58.1888 65.4791 60.5501 64.7766L60.3742 63.7869L60.1984 62.7971C58.7336 63.2329 57.3707 62.4341 57.0762 61.1931L56.1317 61.534ZM60.3742 63.7869L60.5501 64.7766C62.9429 64.0645 64.5828 61.5727 64.0041 59.1323L63.0596 59.4731L62.115 59.814C62.3963 61.0001 61.6314 62.3707 60.1984 62.7971L60.3742 63.7869ZM63.0596 59.4731L64.0041 59.1322C63.4379 56.7462 61.0014 55.5283 58.6402 56.2309L58.8161 57.2206L58.992 58.2103C60.4571 57.7743 61.8207 58.5733 62.1151 59.8141L63.0596 59.4731Z" fill="url(#paint2_linear_2001_400)" mask="url(#path-4-outside-1_2001_400)"/>
</g>
<defs>
<filter id="filter0_f_2001_400" x="9.60199" y="31.3977" width="63.3605" height="68.1484" filterUnits="userSpaceOnUse" color-interpolation-filters="sRGB">
<feFlood flood-opacity="0" result="BackgroundImageFix"/>
<feBlend mode="normal" in="SourceGraphic" in2="BackgroundImageFix" result="shape"/>
<feGaussianBlur stdDeviation="10" result="effect1_foregroundBlur_2001_400"/>
</filter>
<filter id="filter1_d_2001_400" x="29.5428" y="6.46344" width="70.3895" height="72.5449" filterUnits="userSpaceOnUse" color-interpolation-filters="sRGB">
<feFlood flood-opacity="0" result="BackgroundImageFix"/>
<feColorMatrix in="SourceAlpha" type="matrix" values="0 0 0 0 0 0 0 0 0 0 0 0 0 0 0 0 0 0 127 0" result="hardAlpha"/>
<feOffset dx="5" dy="5"/>
<feGaussianBlur stdDeviation="5"/>
<feColorMatrix type="matrix" values="0 0 0 0 0.15375 0 0 0 0 0.522433 0 0 0 0 0.9 0 0 0 0.5 0"/>
<feBlend mode="normal" in2="BackgroundImageFix" result="effect1_dropShadow_2001_400"/>
<feBlend mode="normal" in="SourceGraphic" in2="effect1_dropShadow_2001_400" result="shape"/>
</filter>
<clipPath id="bgblur_0_2001_400_clip_path" transform="translate(-29.5428 -6.46344)"><path fill-rule="evenodd" clip-rule="evenodd" d="M80.5001 51.4467C82.4133 50.8772 84.3136 51.8853 84.7438 53.6982C85.1738 55.5112 83.9714 57.4432 82.0583 58.0129C80.145 58.5824 78.2447 57.5745 77.8146 55.7614C77.3846 53.9484 78.587 52.0164 80.5001 51.4467ZM58.7169 57.2838C60.6302 56.7143 62.5297 57.7225 62.9597 59.5356C63.3894 61.3486 62.1872 63.2798 60.274 63.8493C58.3606 64.4188 56.4612 63.4106 56.0312 61.5975C55.6012 59.7843 56.8036 57.8533 58.7169 57.2838ZM44.8392 45.0861C43.0177 35.4703 49.7723 25.4528 60.1526 22.375C70.5329 19.2973 80.8465 24.2539 83.5344 33.6128L83.7389 34.4757C83.8168 34.7487 84.9931 40.4141 84.9298 40.7025L79.3632 42.3523C79.1928 42.1203 77.5986 35.6669 77.5296 35.3933C75.9094 28.5757 68.5538 24.8409 61.1011 27.0506C53.6485 29.2604 48.9201 36.5785 50.5403 43.396C50.6556 43.6516 52.194 50.1216 52.2066 50.4044L46.5046 52.0948C46.3891 51.8385 44.8522 45.3706 44.8392 45.0861Z"/>
</clipPath><clipPath id="bgblur_1_2001_400_clip_path" transform="translate(-13.4738 -11.5732)"><path fill-rule="evenodd" clip-rule="evenodd" d="M47.6885 48.8371L87.236 37.0809C92.158 35.6178 98.0949 37.3435 101.799 44.7234L110.064 66.034C115.703 79.854 108.257 88.3849 96.3829 91.9147L64.097 101.512C52.1881 105.051 42.0999 103.687 40.7089 86.6506L38.4685 63.5483C38.0829 54.9379 42.6978 50.3207 47.6885 48.8371ZM80.5998 51.3839C78.687 51.9534 77.4854 53.885 77.9156 55.6983C78.3461 57.5113 80.2453 58.5202 82.1581 57.9511C84.0712 57.3818 85.2735 55.4498 84.8433 53.6364C84.413 51.823 82.5129 50.8146 80.5998 51.3839ZM58.8161 57.2206C56.9033 57.79 55.7016 59.7208 56.1317 61.534C56.562 63.3474 58.4612 64.356 60.3742 63.7869C62.2872 63.2176 63.4895 61.2864 63.0596 59.4731C62.6293 57.6597 60.7292 56.6513 58.8161 57.2206Z"/>
</clipPath><linearGradient id="paint0_linear_2001_400" x1="76.8595" y1="36.0478" x2="1.03873" y2="69.1534" gradientUnits="userSpaceOnUse">
<stop stop-color="#39AFFD"/>
<stop offset="1" stop-color="#477FFF"/>
</linearGradient>
<linearGradient id="paint1_linear_2001_400" x1="91.4018" y1="22.1409" x2="35.733" y2="35.0638" gradientUnits="userSpaceOnUse">
<stop stop-color="white"/>
<stop offset="1" stop-color="white" stop-opacity="0.2"/>
</linearGradient>
<linearGradient id="paint2_linear_2001_400" x1="45.742" y1="56.4239" x2="90.4838" y2="95.6398" gradientUnits="userSpaceOnUse">
<stop stop-color="white" stop-opacity="0.25"/>
<stop offset="1" stop-color="white" stop-opacity="0"/>
</linearGradient>
</defs>
</svg>
