<svg width="120" height="120" viewBox="0 0 120 120" fill="none" xmlns="http://www.w3.org/2000/svg">
<path fill-rule="evenodd" clip-rule="evenodd" d="M82.046 29.3158C80.5451 27.5531 79.0443 26.7483 76.7554 26.7483H26.0817C24.881 26.7483 23.9054 25.8286 23.7928 24.5985L23.0799 16.0144C22.9673 14.7115 22.0293 13.6423 20.7535 13.4086L11.8045 12.0328C10.2661 11.7991 8.80272 12.8376 8.54006 14.4049C8.27741 15.9378 9.32803 17.4323 10.8289 17.7006C14.1671 18.2876 16.6894 21.0523 16.9685 24.4302L19.9468 60.4713C20.3596 65.5297 24.487 69.4347 29.4774 69.4347H70.4141C75.1795 69.4347 79.2319 65.8746 79.9073 61.0423L83.4719 35.9033C83.8096 33.6079 83.5469 31.0786 82.046 29.3158Z" fill="url(#paint0_linear_2001_174)"/>
<g filter="url(#filter0_f_2001_174)">
<rect x="26.3445" y="37" width="45" height="27" rx="5" fill="#2AA42B" fill-opacity="0.5"/>
</g>
<foreignObject x="6.33374" y="2.16788" width="131.666" height="131.667"><div xmlns="http://www.w3.org/1999/xhtml" style="backdrop-filter:blur(12px);clip-path:url(#bgblur_0_2001_174_clip_path);height:100%;width:100%"></div></foreignObject><g data-figma-bg-blur-radius="24">
<mask id="path-3-outside-1_2001_174" maskUnits="userSpaceOnUse" x="30" y="26.168" width="84" height="84" fill="black">
<rect fill="white" x="30" y="26.168" width="84" height="84"/>
<path fill-rule="evenodd" clip-rule="evenodd" d="M38.779 43.2052C36.2901 43.2052 34.658 44.0803 33.026 45.9972C31.3939 47.914 31.1083 50.6643 31.4755 53.1604L35.3516 80.4964C36.0861 85.7511 40.4926 89.6223 45.6744 89.6223H90.1889C95.6155 89.6223 100.104 85.3761 100.553 79.8755L104.306 34.4502L110.467 33.3668C112.099 33.0751 113.242 31.4499 112.956 29.7831C112.671 28.0787 111.079 26.9495 109.406 27.2037L99.6753 28.6996C98.288 28.9538 97.268 30.1164 97.1456 31.5332L96.3703 40.8675C96.2479 42.2051 95.1871 43.2052 93.8815 43.2052H38.779ZM90.8431 96.209C94.2704 96.209 97.0449 99.0426 97.0449 102.543C97.0449 106.002 94.2704 108.835 90.8431 108.835C87.4566 108.835 84.6821 106.002 84.6821 102.543C84.6821 99.0426 87.4566 96.209 90.8431 96.209ZM44.9417 96.209C48.369 96.209 51.1436 99.0426 51.1436 102.543C51.1436 106.002 48.369 108.835 44.9417 108.835C41.5552 108.835 38.7807 106.002 38.7807 102.543C38.7807 99.0426 41.5552 96.209 44.9417 96.209Z"/>
</mask>
<path fill-rule="evenodd" clip-rule="evenodd" d="M38.779 43.2052C36.2901 43.2052 34.658 44.0803 33.026 45.9972C31.3939 47.914 31.1083 50.6643 31.4755 53.1604L35.3516 80.4964C36.0861 85.7511 40.4926 89.6223 45.6744 89.6223H90.1889C95.6155 89.6223 100.104 85.3761 100.553 79.8755L104.306 34.4502L110.467 33.3668C112.099 33.0751 113.242 31.4499 112.956 29.7831C112.671 28.0787 111.079 26.9495 109.406 27.2037L99.6753 28.6996C98.288 28.9538 97.268 30.1164 97.1456 31.5332L96.3703 40.8675C96.2479 42.2051 95.1871 43.2052 93.8815 43.2052H38.779ZM90.8431 96.209C94.2704 96.209 97.0449 99.0426 97.0449 102.543C97.0449 106.002 94.2704 108.835 90.8431 108.835C87.4566 108.835 84.6821 106.002 84.6821 102.543C84.6821 99.0426 87.4566 96.209 90.8431 96.209ZM44.9417 96.209C48.369 96.209 51.1436 99.0426 51.1436 102.543C51.1436 106.002 48.369 108.835 44.9417 108.835C41.5552 108.835 38.7807 106.002 38.7807 102.543C38.7807 99.0426 41.5552 96.209 44.9417 96.209Z" fill="#72DC60" fill-opacity="0.35"/>
<path d="M33.026 45.9972L33.7874 46.6455V46.6455L33.026 45.9972ZM31.4755 53.1604L32.4649 53.0148L32.4656 53.02L31.4755 53.1604ZM35.3516 80.4964L36.3417 80.356L36.342 80.358L35.3516 80.4964ZM100.553 79.8755L99.5558 79.7942L99.5559 79.7932L100.553 79.8755ZM104.306 34.4502L103.31 34.3678C103.347 33.9148 103.685 33.544 104.133 33.4653L104.306 34.4502ZM110.467 33.3668L110.643 34.3512L110.64 34.3516L110.467 33.3668ZM112.956 29.7831L111.971 29.952L111.97 29.9483L112.956 29.7831ZM109.406 27.2037L109.254 26.2153L109.256 26.215L109.406 27.2037ZM99.6753 28.6996L99.495 27.716C99.5044 27.7143 99.5139 27.7127 99.5233 27.7112L99.6753 28.6996ZM97.1456 31.5332L96.149 31.4505L96.1493 31.4472L97.1456 31.5332ZM96.3703 40.8675L97.367 40.9503L97.3662 40.9586L96.3703 40.8675ZM33.026 45.9972L32.2646 45.3489C33.1377 44.3234 34.056 43.5232 35.1364 42.9867C36.2231 42.4471 37.4112 42.2052 38.779 42.2052V43.2052V44.2052C37.6579 44.2052 36.7855 44.4009 36.0259 44.778C35.2601 45.1583 34.5463 45.7541 33.7874 46.6455L33.026 45.9972ZM31.4755 53.1604L30.4862 53.3059C30.0997 50.6792 30.364 47.5811 32.2646 45.3489L33.026 45.9972L33.7874 46.6455C32.4238 48.2469 32.1169 50.6494 32.4649 53.0148L31.4755 53.1604ZM35.3516 80.4964L34.3615 80.6368L30.4854 53.3008L31.4755 53.1604L32.4656 53.02L36.3417 80.356L35.3516 80.4964ZM45.6744 89.6223V90.6223C39.9815 90.6223 35.163 86.3712 34.3613 80.6348L35.3516 80.4964L36.342 80.358C37.0091 85.1311 41.0038 88.6223 45.6744 88.6223V89.6223ZM90.1889 89.6223V90.6223H45.6744V89.6223V88.6223H90.1889V89.6223ZM100.553 79.8755L101.549 79.9568C101.06 85.9565 96.156 90.6223 90.1889 90.6223V89.6223V88.6223C95.075 88.6223 99.1477 84.7956 99.5558 79.7942L100.553 79.8755ZM104.306 34.4502L105.303 34.5326L101.549 79.9579L100.553 79.8755L99.5559 79.7932L103.31 34.3678L104.306 34.4502ZM110.467 33.3668L110.64 34.3516L104.479 35.4351L104.306 34.4502L104.133 33.4653L110.294 32.3819L110.467 33.3668ZM112.956 29.7831L113.942 29.6142C114.319 31.8165 112.822 33.9617 110.643 34.3512L110.467 33.3668L110.291 32.3824C111.376 32.1884 112.164 31.0833 111.971 29.952L112.956 29.7831ZM109.406 27.2037L109.256 26.215C111.465 25.8793 113.566 27.3709 113.942 29.6178L112.956 29.7831L111.97 29.9483C111.775 28.7866 110.693 28.0196 109.557 28.1923L109.406 27.2037ZM99.6753 28.6996L99.5233 27.7112L109.254 26.2153L109.406 27.2037L109.558 28.192L99.8272 29.688L99.6753 28.6996ZM97.1456 31.5332L96.1493 31.4472C96.3088 29.601 97.6457 28.0549 99.495 27.716L99.6753 28.6996L99.8555 29.6833C98.9304 29.8528 98.2272 30.6319 98.1419 31.6193L97.1456 31.5332ZM96.3703 40.8675L95.3738 40.7847L96.149 31.4505L97.1456 31.5332L98.1421 31.616L97.3669 40.9503L96.3703 40.8675ZM93.8815 43.2052V42.2052C94.6435 42.2052 95.2967 41.6261 95.3745 40.7764L96.3703 40.8675L97.3662 40.9586C97.1991 42.7841 95.7307 44.2052 93.8815 44.2052V43.2052ZM38.779 43.2052V42.2052H93.8815V43.2052V44.2052H38.779V43.2052ZM97.0449 102.543H96.0449C96.0449 99.5749 93.6984 97.209 90.8431 97.209V96.209V95.209C94.8425 95.209 98.0449 98.5103 98.0449 102.543H97.0449ZM90.8431 108.835V107.835C93.7026 107.835 96.0449 105.465 96.0449 102.543H97.0449H98.0449C98.0449 106.538 94.8382 109.835 90.8431 109.835V108.835ZM84.6821 102.543H85.6821C85.6821 105.469 88.0286 107.835 90.8431 107.835V108.835V109.835C86.8845 109.835 83.6821 106.534 83.6821 102.543H84.6821ZM90.8431 96.209V97.209C88.0329 97.209 85.6821 99.5706 85.6821 102.543H84.6821H83.6821C83.6821 98.5146 86.8803 95.209 90.8431 95.209V96.209ZM51.1436 102.543H50.1436C50.1436 99.5749 47.797 97.209 44.9417 97.209V96.209V95.209C48.9411 95.209 52.1436 98.5103 52.1436 102.543H51.1436ZM44.9417 108.835V107.835C47.8012 107.835 50.1436 105.465 50.1436 102.543H51.1436H52.1436C52.1436 106.538 48.9369 109.835 44.9417 109.835V108.835ZM38.7807 102.543H39.7807C39.7807 105.469 42.1273 107.835 44.9417 107.835V108.835V109.835C40.9831 109.835 37.7807 106.534 37.7807 102.543H38.7807ZM44.9417 96.209V97.209C42.1315 97.209 39.7807 99.5706 39.7807 102.543H38.7807H37.7807C37.7807 98.5146 40.9789 95.209 44.9417 95.209V96.209Z" fill="url(#paint1_linear_2001_174)" mask="url(#path-3-outside-1_2001_174)"/>
</g>
<foreignObject x="34.1421" y="43.6172" width="47.4224" height="36.2506"><div xmlns="http://www.w3.org/1999/xhtml" style="backdrop-filter:blur(7.5px);clip-path:url(#bgblur_1_2001_174_clip_path);height:100%;width:100%"></div></foreignObject><g filter="url(#filter2_d_2001_174)" data-figma-bg-blur-radius="15">
<mask id="path-5-inside-2_2001_174" fill="white">
<path fill-rule="evenodd" clip-rule="evenodd" d="M52.2023 64.8678H63.5043C65.218 64.8678 66.5645 63.451 66.5645 61.7425C66.5645 59.9923 65.218 58.6172 63.5043 58.6172H52.2023C50.4887 58.6172 49.1422 59.9923 49.1422 61.7425C49.1422 63.451 50.4887 64.8678 52.2023 64.8678Z"/>
</mask>
<path fill-rule="evenodd" clip-rule="evenodd" d="M52.2023 64.8678H63.5043C65.218 64.8678 66.5645 63.451 66.5645 61.7425C66.5645 59.9923 65.218 58.6172 63.5043 58.6172H52.2023C50.4887 58.6172 49.1422 59.9923 49.1422 61.7425C49.1422 63.451 50.4887 64.8678 52.2023 64.8678Z" fill="url(#paint2_linear_2001_174)"/>
<path d="M52.2023 64.8678V64.6678H63.5043V64.8678V65.0678H52.2023V64.8678ZM63.5043 64.8678V64.6678C65.1019 64.6678 66.3645 63.3463 66.3645 61.7425H66.5645H66.7645C66.7645 63.5557 65.3341 65.0678 63.5043 65.0678V64.8678ZM66.5645 61.7425H66.3645C66.3645 60.0988 65.1036 58.8172 63.5043 58.8172V58.6172V58.4172C65.3324 58.4172 66.7645 59.8859 66.7645 61.7425H66.5645ZM63.5043 58.6172V58.8172H52.2023V58.6172V58.4172H63.5043V58.6172ZM52.2023 58.6172V58.8172C50.6031 58.8172 49.3422 60.0988 49.3422 61.7425H49.1422H48.9422C48.9422 59.8859 50.3742 58.4172 52.2023 58.4172V58.6172ZM49.1422 61.7425H49.3422C49.3422 63.3463 50.6048 64.6678 52.2023 64.6678V64.8678V65.0678C50.3725 65.0678 48.9422 63.5557 48.9422 61.7425H49.1422Z" fill="url(#paint3_linear_2001_174)" fill-opacity="0.5" mask="url(#path-5-inside-2_2001_174)"/>
</g>
<defs>
<filter id="filter0_f_2001_174" x="12.3445" y="23" width="73" height="55" filterUnits="userSpaceOnUse" color-interpolation-filters="sRGB">
<feFlood flood-opacity="0" result="BackgroundImageFix"/>
<feBlend mode="normal" in="SourceGraphic" in2="BackgroundImageFix" result="shape"/>
<feGaussianBlur stdDeviation="7" result="effect1_foregroundBlur_2001_174"/>
</filter>
<clipPath id="bgblur_0_2001_174_clip_path" transform="translate(-6.33374 -2.16788)"><path fill-rule="evenodd" clip-rule="evenodd" d="M38.779 43.2052C36.2901 43.2052 34.658 44.0803 33.026 45.9972C31.3939 47.914 31.1083 50.6643 31.4755 53.1604L35.3516 80.4964C36.0861 85.7511 40.4926 89.6223 45.6744 89.6223H90.1889C95.6155 89.6223 100.104 85.3761 100.553 79.8755L104.306 34.4502L110.467 33.3668C112.099 33.0751 113.242 31.4499 112.956 29.7831C112.671 28.0787 111.079 26.9495 109.406 27.2037L99.6753 28.6996C98.288 28.9538 97.268 30.1164 97.1456 31.5332L96.3703 40.8675C96.2479 42.2051 95.1871 43.2052 93.8815 43.2052H38.779ZM90.8431 96.209C94.2704 96.209 97.0449 99.0426 97.0449 102.543C97.0449 106.002 94.2704 108.835 90.8431 108.835C87.4566 108.835 84.6821 106.002 84.6821 102.543C84.6821 99.0426 87.4566 96.209 90.8431 96.209ZM44.9417 96.209C48.369 96.209 51.1436 99.0426 51.1436 102.543C51.1436 106.002 48.369 108.835 44.9417 108.835C41.5552 108.835 38.7807 106.002 38.7807 102.543C38.7807 99.0426 41.5552 96.209 44.9417 96.209Z"/>
</clipPath><filter id="filter2_d_2001_174" x="34.1421" y="43.6172" width="47.4224" height="36.2506" filterUnits="userSpaceOnUse" color-interpolation-filters="sRGB">
<feFlood flood-opacity="0" result="BackgroundImageFix"/>
<feColorMatrix in="SourceAlpha" type="matrix" values="0 0 0 0 0 0 0 0 0 0 0 0 0 0 0 0 0 0 127 0" result="hardAlpha"/>
<feOffset dx="5" dy="5"/>
<feGaussianBlur stdDeviation="5"/>
<feColorMatrix type="matrix" values="0 0 0 0 0.454902 0 0 0 0 0.870588 0 0 0 0 0.376471 0 0 0 0.5 0"/>
<feBlend mode="normal" in2="BackgroundImageFix" result="effect1_dropShadow_2001_174"/>
<feBlend mode="normal" in="SourceGraphic" in2="effect1_dropShadow_2001_174" result="shape"/>
</filter>
<clipPath id="bgblur_1_2001_174_clip_path" transform="translate(-34.1421 -43.6172)"><path fill-rule="evenodd" clip-rule="evenodd" d="M52.2023 64.8678H63.5043C65.218 64.8678 66.5645 63.451 66.5645 61.7425C66.5645 59.9923 65.218 58.6172 63.5043 58.6172H52.2023C50.4887 58.6172 49.1422 59.9923 49.1422 61.7425C49.1422 63.451 50.4887 64.8678 52.2023 64.8678Z"/>
</clipPath><linearGradient id="paint0_linear_2001_174" x1="83.6026" y1="12" x2="46.0483" y2="69.4328" gradientUnits="userSpaceOnUse">
<stop stop-color="#9BF763"/>
<stop offset="1" stop-color="#26AB5B"/>
</linearGradient>
<linearGradient id="paint1_linear_2001_174" x1="100" y1="36.6823" x2="47.9049" y2="101.203" gradientUnits="userSpaceOnUse">
<stop stop-color="white" stop-opacity="0.25"/>
<stop offset="1" stop-color="white" stop-opacity="0"/>
</linearGradient>
<linearGradient id="paint2_linear_2001_174" x1="50.3774" y1="59.7459" x2="69.6457" y2="61.497" gradientUnits="userSpaceOnUse">
<stop stop-color="white"/>
<stop offset="1" stop-color="white" stop-opacity="0.2"/>
</linearGradient>
<linearGradient id="paint3_linear_2001_174" x1="64.6877" y1="60.714" x2="49.8968" y2="60.9416" gradientUnits="userSpaceOnUse">
<stop stop-color="white"/>
<stop offset="1" stop-color="white" stop-opacity="0"/>
</linearGradient>
</defs>
</svg>
