<svg width="120" height="120" viewBox="0 0 120 120" fill="none" xmlns="http://www.w3.org/2000/svg">
<path d="M86.6667 53.8333C86.6667 76.3856 68.3856 94.6667 45.8333 94.6667C23.2811 94.6667 5 76.3856 5 53.8333C5 31.2852 23.2811 13 45.8333 13C68.3856 13 86.6667 31.2852 86.6667 53.8333Z" fill="url(#paint0_linear_2001_351)"/>
<g opacity="0.5" filter="url(#filter0_f_2001_351)">
<path d="M63.8018 47.6914C63.8018 59.842 53.9524 69.6914 41.8018 69.6914C29.6512 69.6914 19.8018 59.842 19.8018 47.6914C19.8018 35.543 29.6512 25.6914 41.8018 25.6914C53.9524 25.6914 63.8018 35.543 63.8018 47.6914Z" fill="#E46800"/>
</g>
<foreignObject x="-5.00104" y="1.00131" width="131.667" height="131.667"><div xmlns="http://www.w3.org/1999/xhtml" style="backdrop-filter:blur(12px);clip-path:url(#bgblur_0_2001_351_clip_path);height:100%;width:100%"></div></foreignObject><path data-figma-bg-blur-radius="24" d="M60.8326 108.168C38.0043 108.168 19.4988 89.6591 19.4987 66.835C19.4987 44.0066 38.0043 25.501 60.8326 25.501C83.6609 25.5012 102.166 44.0067 102.166 66.835C102.165 89.659 83.6608 108.168 60.8326 108.168Z" fill="#FFCBB9" fill-opacity="0.35" stroke="url(#paint1_linear_2001_351)" stroke-linecap="round" stroke-linejoin="round"/>
<foreignObject x="46.1566" y="4.76132" width="79.7921" height="79.6848"><div xmlns="http://www.w3.org/1999/xhtml" style="backdrop-filter:blur(7.5px);clip-path:url(#bgblur_1_2001_351_clip_path);height:100%;width:100%"></div></foreignObject><g filter="url(#filter2_d_2001_351)" data-figma-bg-blur-radius="15">
<path d="M67.3951 19.8094C66.2643 19.6428 65.1148 19.913 64.2002 20.5601C63.2856 21.2073 62.6809 22.1785 62.5195 23.2593L62.4538 23.8961L61.1816 62.7893C61.0441 64.0694 61.4774 65.3506 62.3752 66.3182C63.273 67.2858 64.552 67.8501 65.8981 67.8725L106.509 69.4425C107.64 69.4885 108.74 69.1015 109.565 68.3671C110.389 67.6327 110.871 66.6114 110.904 65.5292C110.941 65.396 110.955 65.2578 110.946 65.1199C109.651 42.0431 91.3353 22.9873 67.3951 19.8094Z" fill="url(#paint2_linear_2001_351)"/>
</g>
<foreignObject x="37.9996" y="46" width="44" height="44"><div xmlns="http://www.w3.org/1999/xhtml" style="backdrop-filter:blur(7.5px);clip-path:url(#bgblur_2_2001_351_clip_path);height:100%;width:100%"></div></foreignObject><g filter="url(#filter3_d_2001_351)" data-figma-bg-blur-radius="15">
<circle cx="59.9996" cy="68" r="7" fill="url(#paint3_linear_2001_351)"/>
<circle cx="59.9996" cy="68" r="6.8" stroke="url(#paint4_linear_2001_351)" stroke-width="0.4"/>
</g>
<defs>
<filter id="filter0_f_2001_351" x="0.801758" y="6.69141" width="82" height="82" filterUnits="userSpaceOnUse" color-interpolation-filters="sRGB">
<feFlood flood-opacity="0" result="BackgroundImageFix"/>
<feBlend mode="normal" in="SourceGraphic" in2="BackgroundImageFix" result="shape"/>
<feGaussianBlur stdDeviation="9.5" result="effect1_foregroundBlur_2001_351"/>
</filter>
<clipPath id="bgblur_0_2001_351_clip_path" transform="translate(5.00104 -1.00131)"><path d="M60.8326 108.168C38.0043 108.168 19.4988 89.6591 19.4987 66.835C19.4987 44.0066 38.0043 25.501 60.8326 25.501C83.6609 25.5012 102.166 44.0067 102.166 66.835C102.165 89.659 83.6608 108.168 60.8326 108.168Z"/>
</clipPath><filter id="filter2_d_2001_351" x="46.1566" y="4.76132" width="79.7921" height="79.6848" filterUnits="userSpaceOnUse" color-interpolation-filters="sRGB">
<feFlood flood-opacity="0" result="BackgroundImageFix"/>
<feColorMatrix in="SourceAlpha" type="matrix" values="0 0 0 0 0 0 0 0 0 0 0 0 0 0 0 0 0 0 127 0" result="hardAlpha"/>
<feOffset dx="-3" dy="5"/>
<feGaussianBlur stdDeviation="5"/>
<feColorMatrix type="matrix" values="0 0 0 0 1 0 0 0 0 0.52549 0 0 0 0 0.137255 0 0 0 0.3 0"/>
<feBlend mode="normal" in2="BackgroundImageFix" result="effect1_dropShadow_2001_351"/>
<feBlend mode="normal" in="SourceGraphic" in2="effect1_dropShadow_2001_351" result="shape"/>
</filter>
<clipPath id="bgblur_1_2001_351_clip_path" transform="translate(-46.1566 -4.76132)"><path d="M67.3951 19.8094C66.2643 19.6428 65.1148 19.913 64.2002 20.5601C63.2856 21.2073 62.6809 22.1785 62.5195 23.2593L62.4538 23.8961L61.1816 62.7893C61.0441 64.0694 61.4774 65.3506 62.3752 66.3182C63.273 67.2858 64.552 67.8501 65.8981 67.8725L106.509 69.4425C107.64 69.4885 108.74 69.1015 109.565 68.3671C110.389 67.6327 110.871 66.6114 110.904 65.5292C110.941 65.396 110.955 65.2578 110.946 65.1199C109.651 42.0431 91.3353 22.9873 67.3951 19.8094Z"/>
</clipPath><filter id="filter3_d_2001_351" x="37.9996" y="46" width="44" height="44" filterUnits="userSpaceOnUse" color-interpolation-filters="sRGB">
<feFlood flood-opacity="0" result="BackgroundImageFix"/>
<feColorMatrix in="SourceAlpha" type="matrix" values="0 0 0 0 0 0 0 0 0 0 0 0 0 0 0 0 0 0 127 0" result="hardAlpha"/>
<feOffset dx="5" dy="5"/>
<feGaussianBlur stdDeviation="5"/>
<feColorMatrix type="matrix" values="0 0 0 0 1 0 0 0 0 0.52549 0 0 0 0 0.137255 0 0 0 0.5 0"/>
<feBlend mode="normal" in2="BackgroundImageFix" result="effect1_dropShadow_2001_351"/>
<feBlend mode="normal" in="SourceGraphic" in2="effect1_dropShadow_2001_351" result="shape"/>
</filter>
<clipPath id="bgblur_2_2001_351_clip_path" transform="translate(-37.9996 -46)"><circle cx="59.9996" cy="68" r="7"/>
</clipPath><linearGradient id="paint0_linear_2001_351" x1="45.8333" y1="13" x2="45.8333" y2="94.6667" gradientUnits="userSpaceOnUse">
<stop stop-color="#FFB37F"/>
<stop offset="1" stop-color="#FF7B0D"/>
</linearGradient>
<linearGradient id="paint1_linear_2001_351" x1="101.904" y1="108.223" x2="15.4489" y2="35" gradientUnits="userSpaceOnUse">
<stop stop-color="white" stop-opacity="0.4"/>
<stop offset="1" stop-color="white" stop-opacity="0"/>
</linearGradient>
<linearGradient id="paint2_linear_2001_351" x1="110.54" y1="32.9678" x2="22.6272" y2="20.391" gradientUnits="userSpaceOnUse">
<stop stop-color="white" stop-opacity="0.2"/>
<stop offset="1" stop-color="white"/>
</linearGradient>
<linearGradient id="paint3_linear_2001_351" x1="66.007" y1="63.5281" x2="42.3302" y2="62.6772" gradientUnits="userSpaceOnUse">
<stop stop-color="white"/>
<stop offset="1" stop-color="white" stop-opacity="0.2"/>
</linearGradient>
<linearGradient id="paint4_linear_2001_351" x1="55.2282" y1="62.631" x2="64.1587" y2="73.6917" gradientUnits="userSpaceOnUse">
<stop stop-color="white" stop-opacity="0.25"/>
<stop offset="1" stop-color="white" stop-opacity="0"/>
</linearGradient>
</defs>
</svg>
