<svg width="120" height="120" viewBox="0 0 120 120" fill="none" xmlns="http://www.w3.org/2000/svg">
<path d="M61.8061 69.7067C60.321 66.8284 59.8822 64.5735 60.7252 61.1908L61.0118 60.0406C62.1103 55.6325 61.7571 52.493 60.1581 49.0018C57.702 43.5877 52.3793 39.2403 46.52 37.5867L46.2708 37.5164C40.5347 35.8977 34.105 36.7979 29.4335 40.0089C26.2788 42.2195 24.3564 44.8475 23.2275 49.3777L22.9408 50.5278C22.0978 53.9105 20.7282 55.6551 18.0364 57.3547C16.0553 58.6074 15.0149 60.6423 14.4281 62.9969C13.8406 65.3542 14.0933 67.815 15.2647 70.088C16.8418 72.8616 19.4883 75.095 22.4851 76.1991C26.7908 77.931 31.1714 79.3618 35.6617 80.629C40.1493 81.8954 44.651 82.8406 49.1696 83.7296C52.284 84.3501 55.6227 83.8058 58.2841 82.2283C60.3572 80.8709 61.7254 78.8675 62.3129 76.5102C62.8997 74.1556 62.9435 71.8394 61.8061 69.7067Z" fill="url(#paint0_linear_2001_248)"/>
<path d="M39.6694 86.4083C38.3455 85.7324 29.8462 83.344 28.3805 83.2359C27.1225 83.1634 25.6806 83.4118 25.3461 84.7511C25.0964 86.0483 25.5996 87.3966 26.5081 88.4173L26.5046 88.4192C27.6497 89.859 29.1338 90.987 30.8018 91.7108C31.6924 92.0901 32.631 92.3481 33.6137 92.501C35.398 92.7473 37.2138 92.5467 38.8806 91.897L38.8785 91.8936C40.1441 91.4838 41.2104 90.5766 41.5988 89.3184C41.9332 87.979 40.7962 87.0059 39.6694 86.4083Z" fill="url(#paint1_linear_2001_248)"/>
<g opacity="0.5" filter="url(#filter0_f_2001_248)">
<path d="M52.0001 65.1203C51.4185 63.3206 51.3115 61.8727 51.8732 59.6225L52.0642 58.8574C52.7962 55.925 52.7712 53.8958 52.1631 51.7022C51.2314 48.2992 48.8713 45.7415 46.1287 44.9688L46.0121 44.9359C43.3272 44.1795 40.1923 45.1021 37.7966 47.4402C36.1768 49.0466 35.1306 50.861 34.3783 53.8745L34.1873 54.6397C33.6256 56.8899 32.8861 58.0992 31.5127 59.3482C30.5017 60.2686 29.9072 61.6501 29.5162 63.2164C29.1248 64.7846 29.1327 66.3764 29.5914 67.7977C30.2221 69.5244 31.3922 70.843 32.783 71.4068C34.7745 72.3116 36.816 73.0162 38.9178 73.6084C41.0183 74.2002 43.1404 74.5817 45.2733 74.9258C46.743 75.168 48.3744 74.6387 49.7276 73.4709C50.7877 72.4775 51.5384 71.0994 51.9298 69.5313C52.3208 67.9649 52.4489 66.452 52.0001 65.1203Z" fill="#0062FF"/>
</g>
<foreignObject x="22.5178" y="5.52577" width="100.724" height="99.674"><div xmlns="http://www.w3.org/1999/xhtml" style="backdrop-filter:blur(7.5px);clip-path:url(#bgblur_0_2001_248_clip_path);height:100%;width:100%"></div></foreignObject><g data-figma-bg-blur-radius="15">
<mask id="path-4-outside-1_2001_248" maskUnits="userSpaceOnUse" x="27.7239" y="13.6949" width="84.4775" height="81.3885" fill="black">
<rect fill="white" x="27.7239" y="13.6949" width="84.4775" height="81.3885"/>
<path d="M102.038 54.1535C98.4004 51.3603 96.4515 48.6863 95.3937 43.6683L95.0341 41.9621C93.6557 35.423 91.2626 31.5271 87.1023 28.0037C80.6799 22.5237 71.3587 20.3697 63.0473 22.1217L62.6939 22.1962C54.5573 23.9113 47.1265 29.4074 43.3192 36.7663C40.7743 41.7914 40.0209 46.5398 41.4374 53.2599L41.7971 54.9661C42.8548 59.9841 42.2385 63.1989 39.9509 67.2409C38.2684 70.2181 38.2418 73.5944 38.9781 77.0873C39.7152 80.5842 41.5609 83.654 44.4316 85.8606C48.1179 88.4543 52.7972 89.6197 57.209 89.0638C63.6382 88.4567 69.9732 87.4029 76.3427 86.0603C82.7082 84.7185 88.8913 82.9444 95.0606 81.085C99.3175 79.8136 103.128 76.8585 105.454 72.9975C107.186 69.8208 107.639 66.2663 106.902 62.7694C106.166 59.2765 104.779 56.1982 102.038 54.1535Z"/>
</mask>
<path d="M102.038 54.1535C98.4004 51.3603 96.4515 48.6863 95.3937 43.6683L95.0341 41.9621C93.6557 35.423 91.2626 31.5271 87.1023 28.0037C80.6799 22.5237 71.3587 20.3697 63.0473 22.1217L62.6939 22.1962C54.5573 23.9113 47.1265 29.4074 43.3192 36.7663C40.7743 41.7914 40.0209 46.5398 41.4374 53.2599L41.7971 54.9661C42.8548 59.9841 42.2385 63.1989 39.9509 67.2409C38.2684 70.2181 38.2418 73.5944 38.9781 77.0873C39.7152 80.5842 41.5609 83.654 44.4316 85.8606C48.1179 88.4543 52.7972 89.6197 57.209 89.0638C63.6382 88.4567 69.9732 87.4029 76.3427 86.0603C82.7082 84.7185 88.8913 82.9444 95.0606 81.085C99.3175 79.8136 103.128 76.8585 105.454 72.9975C107.186 69.8208 107.639 66.2663 106.902 62.7694C106.166 59.2765 104.779 56.1982 102.038 54.1535Z" fill="#3EA0FE" fill-opacity="0.35"/>
<path d="M101.428 54.9466C101.866 55.283 102.494 55.2006 102.831 54.7625C103.167 54.3245 103.085 53.6967 102.647 53.3604L102.038 54.1535L101.428 54.9466ZM87.1023 28.0037L86.4533 28.7644L86.4561 28.7668L87.1023 28.0037ZM43.3192 36.7663L42.431 36.3068L42.4271 36.3145L43.3192 36.7663ZM39.9509 67.2409L39.0806 66.7483L39.0803 66.7489L39.9509 67.2409ZM44.4316 85.8606L43.8221 86.6535C43.8333 86.662 43.8446 86.6704 43.8561 86.6785L44.4316 85.8606ZM57.209 89.0638L57.115 88.0682C57.1047 88.0692 57.0943 88.0704 57.084 88.0717L57.209 89.0638ZM95.0606 81.085L94.7745 80.1268L94.7721 80.1275L95.0606 81.085ZM105.454 72.9975L106.311 73.5135C106.318 73.5012 106.325 73.4888 106.332 73.4762L105.454 72.9975ZM102.635 53.3519C102.193 53.0217 101.566 53.1129 101.236 53.5555C100.906 53.9982 100.997 54.6248 101.44 54.955L102.038 54.1535L102.635 53.3519ZM102.038 54.1535L102.647 53.3604C100.882 52.0052 99.5776 50.7176 98.5857 49.1985C97.5952 47.6816 96.8823 45.8818 96.3722 43.462L95.3937 43.6683L94.4152 43.8746C94.9629 46.4728 95.7534 48.519 96.9111 50.2919C98.0673 52.0626 99.556 53.5086 101.428 54.9466L102.038 54.1535ZM95.3937 43.6683L96.3722 43.462L96.0126 41.7558L95.0341 41.9621L94.0556 42.1684L94.4152 43.8746L95.3937 43.6683ZM95.0341 41.9621L96.0126 41.7558C94.5924 35.0186 92.0927 30.9198 87.7486 27.2406L87.1023 28.0037L86.4561 28.7668C90.4324 32.1345 92.719 35.8275 94.0556 42.1684L95.0341 41.9621ZM87.1023 28.0037L87.7514 27.243C81.0786 21.5492 71.4366 19.3313 62.8411 21.1432L63.0473 22.1217L63.2536 23.1002C71.2807 21.4082 80.2813 23.4981 86.4533 28.7644L87.1023 28.0037ZM63.0473 22.1217L62.8411 21.1432L62.4877 21.2177L62.6939 22.1962L62.9002 23.1747L63.2536 23.1002L63.0473 22.1217ZM62.6939 22.1962L62.4877 21.2177C54.069 22.9923 46.3816 28.671 42.431 36.3068L43.3192 36.7663L44.2074 37.2259C47.8714 30.1438 55.0457 24.8304 62.9002 23.1747L62.6939 22.1962ZM43.3192 36.7663L42.4271 36.3145C39.7749 41.5516 38.9975 46.5331 40.4589 53.4662L41.4374 53.2599L42.4159 53.0536C41.0442 46.5464 41.7738 42.0313 44.2113 37.2181L43.3192 36.7663ZM41.4374 53.2599L40.4589 53.4662L40.8186 55.1724L41.7971 54.9661L42.7756 54.7598L42.4159 53.0536L41.4374 53.2599ZM41.7971 54.9661L40.8186 55.1724C41.3302 57.5995 41.4243 59.5298 41.1409 61.3125C40.8576 63.0948 40.1867 64.794 39.0806 66.7483L39.9509 67.2409L40.8212 67.7334C42.0027 65.6457 42.7838 63.7166 43.1161 61.6265C43.4483 59.5367 43.3217 57.3506 42.7756 54.7598L41.7971 54.9661ZM39.9509 67.2409L39.0803 66.7489C37.2291 70.0246 37.2383 73.6822 37.9996 77.2935L38.9781 77.0873L39.9566 76.881C39.2453 73.5066 39.3076 70.4117 40.8215 67.7329L39.9509 67.2409ZM38.9781 77.0873L37.9996 77.2935C38.7831 81.0106 40.7522 84.2937 43.8221 86.6535L44.4316 85.8606L45.041 85.0678C42.3697 83.0144 40.6473 80.1577 39.9566 76.881L38.9781 77.0873ZM44.4316 85.8606L43.8561 86.6785C47.7446 89.4143 52.6733 90.6433 57.3341 90.056L57.209 89.0638L57.084 88.0717C52.9211 88.5962 48.4913 87.4942 45.007 85.0428L44.4316 85.8606ZM57.209 89.0638L57.303 90.0594C63.7787 89.4479 70.1521 88.3872 76.5489 87.0388L76.3427 86.0603L76.1364 85.0818C69.7942 86.4187 63.4977 87.4655 57.115 88.0682L57.209 89.0638ZM76.3427 86.0603L76.5489 87.0388C82.9578 85.6878 89.1744 83.9035 95.3492 82.0424L95.0606 81.085L94.7721 80.1275C88.6083 81.9853 82.4585 83.7491 76.1364 85.0818L76.3427 86.0603ZM95.0606 81.085L95.3468 82.0431C99.8441 80.7 103.857 77.586 106.311 73.5135L105.454 72.9975L104.597 72.4815C102.399 76.1309 98.7909 78.9272 94.7745 80.1268L95.0606 81.085ZM105.454 72.9975L106.332 73.4762C108.183 70.0798 108.664 66.2809 107.881 62.5631L106.902 62.7694L105.924 62.9756C106.614 66.2516 106.188 69.5618 104.576 72.5189L105.454 72.9975ZM106.902 62.7694L107.881 62.5631C107.119 58.9518 105.651 55.6016 102.635 53.3519L102.038 54.1535L101.44 54.955C103.906 56.7948 105.212 59.6012 105.924 62.9756L106.902 62.7694Z" fill="url(#paint2_linear_2001_248)" mask="url(#path-4-outside-1_2001_248)"/>
</g>
<foreignObject x="50.3776" y="73.5806" width="55.4088" height="45.0994"><div xmlns="http://www.w3.org/1999/xhtml" style="backdrop-filter:blur(7.5px);clip-path:url(#bgblur_1_2001_248_clip_path);height:100%;width:100%"></div></foreignObject><g data-figma-bg-blur-radius="15">
<mask id="path-6-outside-2_2001_248" maskUnits="userSpaceOnUse" x="64.4924" y="87.2825" width="28.3286" height="19.0617" fill="black">
<rect fill="white" x="64.4924" y="87.2825" width="28.3286" height="19.0617"/>
<path d="M85.4646 89.5806C83.3773 89.5751 71.2062 92.1407 69.2987 92.9883C67.6743 93.7426 66.0211 95.0493 66.4453 97.0613C66.9491 98.9598 68.4301 100.417 70.2132 101.163L70.21 101.168C72.5542 102.313 75.1273 102.813 77.6767 102.65C79.0332 102.553 80.3737 102.262 81.7033 101.801C84.0978 100.922 86.2501 99.4262 87.9326 97.4324L87.9278 97.4293C89.258 96.0267 90.0246 94.0957 89.7193 92.1553C89.2952 90.1433 87.2553 89.615 85.4646 89.5806Z"/>
</mask>
<path d="M85.4646 89.5806C83.3773 89.5751 71.2062 92.1407 69.2987 92.9883C67.6743 93.7426 66.0211 95.0493 66.4453 97.0613C66.9491 98.9598 68.4301 100.417 70.2132 101.163L70.21 101.168C72.5542 102.313 75.1273 102.813 77.6767 102.65C79.0332 102.553 80.3737 102.262 81.7033 101.801C84.0978 100.922 86.2501 99.4262 87.9326 97.4324L87.9278 97.4293C89.258 96.0267 90.0246 94.0957 89.7193 92.1553C89.2952 90.1433 87.2553 89.615 85.4646 89.5806Z" fill="#3EA0FE" fill-opacity="0.35"/>
<path d="M85.462 90.5806C86.0143 90.5821 86.4632 90.1355 86.4646 89.5833C86.4661 89.031 86.0195 88.5821 85.4673 88.5806L85.4646 89.5806L85.462 90.5806ZM69.2987 92.9883L68.8926 92.0744C68.8876 92.0767 68.8825 92.079 68.8775 92.0813L69.2987 92.9883ZM66.4453 97.0613L65.4668 97.2676C65.4703 97.2844 65.4743 97.3012 65.4787 97.3178L66.4453 97.0613ZM70.2132 101.163L71.0545 101.704C71.2143 101.455 71.2558 101.149 71.168 100.866C71.0802 100.584 70.8719 100.355 70.5992 100.241L70.2132 101.163ZM70.21 101.168L69.3687 100.628C69.2144 100.868 69.1701 101.163 69.247 101.438C69.3239 101.712 69.5146 101.941 69.7711 102.067L70.21 101.168ZM77.6767 102.65L77.7406 103.648L77.7479 103.647L77.6767 102.65ZM81.7033 101.801L82.0309 102.746C82.0365 102.744 82.0422 102.742 82.0478 102.74L81.7033 101.801ZM87.9326 97.4324L88.6969 98.0774C88.881 97.8592 88.9631 97.5726 88.9224 97.29C88.8818 97.0074 88.7223 96.7557 88.4841 96.5982L87.9326 97.4324ZM87.9278 97.4293L87.2022 96.7411C86.9988 96.9556 86.9007 97.2492 86.9343 97.5429C86.9679 97.8366 87.1297 98.1004 87.3764 98.2635L87.9278 97.4293ZM89.7193 92.1553L90.7072 91.9999C90.7045 91.9828 90.7014 91.9659 90.6978 91.949L89.7193 92.1553ZM85.4838 88.5808C84.9317 88.5702 84.4754 89.0092 84.4648 89.5614C84.4542 90.1136 84.8932 90.5698 85.4454 90.5804L85.4646 89.5806L85.4838 88.5808ZM85.4646 89.5806L85.4673 88.5806C84.841 88.579 83.597 88.7572 82.1561 89.0061C80.6765 89.2618 78.8874 89.611 77.108 89.986C75.3285 90.3611 73.5507 90.7638 72.0938 91.1272C70.675 91.4811 69.4649 91.8201 68.8926 92.0744L69.2987 92.9883L69.7047 93.9021C70.0862 93.7326 71.1128 93.4332 72.5778 93.0678C74.0047 92.7119 75.7578 92.3146 77.5205 91.943C79.2832 91.5715 81.0474 91.2273 82.4966 90.977C83.9844 90.7199 85.0446 90.5795 85.462 90.5806L85.4646 89.5806ZM69.2987 92.9883L68.8775 92.0813C68.0011 92.4883 67.0338 93.0794 66.3372 93.911C65.6132 94.7753 65.1806 95.9098 65.4668 97.2676L66.4453 97.0613L67.4238 96.855C67.2859 96.2008 67.4677 95.676 67.8703 95.1953C68.3004 94.6819 68.9718 94.2426 69.7198 93.8953L69.2987 92.9883ZM66.4453 97.0613L65.4787 97.3178C66.0768 99.5712 67.8143 101.243 69.8271 102.086L70.2132 101.163L70.5992 100.241C69.0458 99.5907 67.8215 98.3485 67.4118 96.8048L66.4453 97.0613ZM70.2132 101.163L69.3718 100.623L69.3687 100.628L70.21 101.168L71.0514 101.709L71.0545 101.704L70.2132 101.163ZM70.21 101.168L69.7711 102.067C72.2718 103.288 75.0183 103.822 77.7406 103.648L77.6767 102.65L77.6128 101.652C75.2363 101.804 72.8365 101.338 70.6489 100.27L70.21 101.168ZM77.6767 102.65L77.7479 103.647C79.2007 103.544 80.6273 103.232 82.0309 102.746L81.7033 101.801L81.3757 100.856C80.1201 101.292 78.8658 101.562 77.6055 101.652L77.6767 102.65ZM81.7033 101.801L82.0478 102.74C84.605 101.801 86.9021 100.204 88.6969 98.0774L87.9326 97.4324L87.1684 96.7875C85.5982 98.6482 83.5906 100.043 81.3588 100.862L81.7033 101.801ZM87.9326 97.4324L88.4841 96.5982L88.4792 96.595L87.9278 97.4293L87.3764 98.2635L87.3812 98.2667L87.9326 97.4324ZM87.9278 97.4293L88.6534 98.1174C90.1549 96.5342 91.0696 94.3029 90.7072 91.9999L89.7193 92.1553L88.7315 92.3107C88.9797 93.8885 88.3611 95.5192 87.2022 96.7411L87.9278 97.4293ZM89.7193 92.1553L90.6978 91.949C90.4116 90.5912 89.5578 89.7279 88.5466 89.2294C87.5736 88.7498 86.45 88.5994 85.4838 88.5808L85.4646 89.5806L85.4454 90.5804C86.2699 90.5963 87.0616 90.7272 87.6623 91.0233C88.2247 91.3005 88.6029 91.7073 88.7408 92.3616L89.7193 92.1553Z" fill="url(#paint3_linear_2001_248)" mask="url(#path-6-outside-2_2001_248)"/>
</g>
<foreignObject x="57.9525" y="17.7014" width="42.334" height="43.39"><div xmlns="http://www.w3.org/1999/xhtml" style="backdrop-filter:blur(7.5px);clip-path:url(#bgblur_2_2001_248_clip_path);height:100%;width:100%"></div></foreignObject><g filter="url(#filter3_d_2001_248)" data-figma-bg-blur-radius="15">
<path d="M76.3773 32.7709C74.9292 32.4459 73.4671 33.2916 73.0151 34.6612C72.8632 35.4233 72.9841 36.2307 73.4149 36.8742C73.8457 37.5177 74.5201 37.9737 75.3105 38.1414L75.4149 38.1728C77.7689 38.8802 79.4597 40.9634 79.6192 43.3649C79.696 44.9301 81.0224 46.1365 82.5785 46.0901C84.1447 46.01 85.3443 44.7182 85.2844 43.1948C84.9407 38.3514 81.5264 34.2081 76.7781 32.8913L76.3773 32.7709Z" fill="url(#paint4_linear_2001_248)"/>
<path d="M76.3482 32.8671C74.9551 32.5583 73.5505 33.3713 73.1128 34.6857C72.9668 35.424 73.0847 36.2014 73.4977 36.8184C73.8616 37.3619 74.4062 37.768 75.0493 37.9699L75.3311 38.0434L75.4434 38.0771C77.8358 38.796 79.5562 40.9137 79.7187 43.3581L79.719 43.3602L79.7465 43.6387C79.9535 45.0109 81.1675 46.033 82.576 45.991C84.0868 45.9124 85.2395 44.6669 85.1841 43.2027L85.1843 43.2018C84.8437 38.4014 81.4597 34.2929 76.7516 32.9873L76.7513 32.9882L76.3482 32.8671Z" stroke="url(#paint5_linear_2001_248)" stroke-opacity="0.5" stroke-width="0.2"/>
</g>
<defs>
<filter id="filter0_f_2001_248" x="14.2343" y="29.6772" width="53.3823" height="60.3061" filterUnits="userSpaceOnUse" color-interpolation-filters="sRGB">
<feFlood flood-opacity="0" result="BackgroundImageFix"/>
<feBlend mode="normal" in="SourceGraphic" in2="BackgroundImageFix" result="shape"/>
<feGaussianBlur stdDeviation="7.5" result="effect1_foregroundBlur_2001_248"/>
</filter>
<clipPath id="bgblur_0_2001_248_clip_path" transform="translate(-22.5178 -5.52577)"><path d="M102.038 54.1535C98.4004 51.3603 96.4515 48.6863 95.3937 43.6683L95.0341 41.9621C93.6557 35.423 91.2626 31.5271 87.1023 28.0037C80.6799 22.5237 71.3587 20.3697 63.0473 22.1217L62.6939 22.1962C54.5573 23.9113 47.1265 29.4074 43.3192 36.7663C40.7743 41.7914 40.0209 46.5398 41.4374 53.2599L41.7971 54.9661C42.8548 59.9841 42.2385 63.1989 39.9509 67.2409C38.2684 70.2181 38.2418 73.5944 38.9781 77.0873C39.7152 80.5842 41.5609 83.654 44.4316 85.8606C48.1179 88.4543 52.7972 89.6197 57.209 89.0638C63.6382 88.4567 69.9732 87.4029 76.3427 86.0603C82.7082 84.7185 88.8913 82.9444 95.0606 81.085C99.3175 79.8136 103.128 76.8585 105.454 72.9975C107.186 69.8208 107.639 66.2663 106.902 62.7694C106.166 59.2765 104.779 56.1982 102.038 54.1535Z"/>
</clipPath><clipPath id="bgblur_1_2001_248_clip_path" transform="translate(-50.3776 -73.5806)"><path d="M85.4646 89.5806C83.3773 89.5751 71.2062 92.1407 69.2987 92.9883C67.6743 93.7426 66.0211 95.0493 66.4453 97.0613C66.9491 98.9598 68.4301 100.417 70.2132 101.163L70.21 101.168C72.5542 102.313 75.1273 102.813 77.6767 102.65C79.0332 102.553 80.3737 102.262 81.7033 101.801C84.0978 100.922 86.2501 99.4262 87.9326 97.4324L87.9278 97.4293C89.258 96.0267 90.0246 94.0957 89.7193 92.1553C89.2952 90.1433 87.2553 89.615 85.4646 89.5806Z"/>
</clipPath><filter id="filter3_d_2001_248" x="57.9525" y="17.7014" width="42.334" height="43.39" filterUnits="userSpaceOnUse" color-interpolation-filters="sRGB">
<feFlood flood-opacity="0" result="BackgroundImageFix"/>
<feColorMatrix in="SourceAlpha" type="matrix" values="0 0 0 0 0 0 0 0 0 0 0 0 0 0 0 0 0 0 127 0" result="hardAlpha"/>
<feOffset dx="5" dy="5"/>
<feGaussianBlur stdDeviation="5"/>
<feColorMatrix type="matrix" values="0 0 0 0 0.15375 0 0 0 0 0.522433 0 0 0 0 0.9 0 0 0 0.5 0"/>
<feBlend mode="normal" in2="BackgroundImageFix" result="effect1_dropShadow_2001_248"/>
<feBlend mode="normal" in="SourceGraphic" in2="effect1_dropShadow_2001_248" result="shape"/>
</filter>
<clipPath id="bgblur_2_2001_248_clip_path" transform="translate(-57.9525 -17.7014)"><path d="M76.3773 32.7709C74.9292 32.4459 73.4671 33.2916 73.0151 34.6612C72.8632 35.4233 72.9841 36.2307 73.4149 36.8742C73.8457 37.5177 74.5201 37.9737 75.3105 38.1414L75.4149 38.1728C77.7689 38.8802 79.4597 40.9634 79.6192 43.3649C79.696 44.9301 81.0224 46.1365 82.5785 46.0901C84.1447 46.01 85.3443 44.7182 85.2844 43.1948C84.9407 38.3514 81.5264 34.2081 76.7781 32.8913L76.3773 32.7709Z"/>
</clipPath><linearGradient id="paint0_linear_2001_248" x1="70.5333" y1="44.3634" x2="12.0031" y2="74.8526" gradientUnits="userSpaceOnUse">
<stop stop-color="#39AFFD"/>
<stop offset="1" stop-color="#477FFF"/>
</linearGradient>
<linearGradient id="paint1_linear_2001_248" x1="42.2707" y1="86.9114" x2="31.6425" y2="97.5511" gradientUnits="userSpaceOnUse">
<stop stop-color="#39AFFD"/>
<stop offset="1" stop-color="#477FFF"/>
</linearGradient>
<linearGradient id="paint2_linear_2001_248" x1="41.2903" y1="34.4834" x2="92.6085" y2="78.8996" gradientUnits="userSpaceOnUse">
<stop stop-color="white" stop-opacity="0.25"/>
<stop offset="1" stop-color="white" stop-opacity="0"/>
</linearGradient>
<linearGradient id="paint3_linear_2001_248" x1="69.6618" y1="93.964" x2="77.4564" y2="105.753" gradientUnits="userSpaceOnUse">
<stop stop-color="white" stop-opacity="0.25"/>
<stop offset="1" stop-color="white" stop-opacity="0"/>
</linearGradient>
<linearGradient id="paint4_linear_2001_248" x1="84.8539" y1="36.1387" x2="80.9873" y2="47.9181" gradientUnits="userSpaceOnUse">
<stop stop-color="white"/>
<stop offset="1" stop-color="white" stop-opacity="0.2"/>
</linearGradient>
<linearGradient id="paint5_linear_2001_248" x1="80.0957" y1="44.2475" x2="82.7749" y2="35.1915" gradientUnits="userSpaceOnUse">
<stop stop-color="white"/>
<stop offset="1" stop-color="white" stop-opacity="0"/>
</linearGradient>
</defs>
</svg>
