<svg width="120" height="120" viewBox="0 0 120 120" fill="none" xmlns="http://www.w3.org/2000/svg">
<path d="M58.1007 72.9846C57.5947 74.0279 57.6349 75.2555 58.2051 76.2659L66.3075 90.1491C66.9932 91.3262 66.9261 92.7947 66.1372 93.907C65.3794 95.0387 64.038 95.6303 62.6911 95.4368L46.7689 93.3353C46.2134 93.2572 45.6484 93.3125 45.1143 93.4901L44.2957 93.7885C44.0271 93.9343 43.7822 94.1262 43.5791 94.3576L32.7527 106.246C32.2123 106.82 31.5061 107.21 30.7291 107.36C28.8175 107.674 27.0034 106.405 26.6413 104.501L23.9127 88.6588C23.6957 87.5094 22.9344 86.5379 21.8712 86.0527L7.10982 79.4559C5.87496 78.9033 5.07334 77.6898 5.0531 76.3387C5.02188 74.9949 5.73678 73.7454 6.91278 73.0943L21.132 65.4443C22.2309 64.9103 22.9806 63.85 23.1197 62.6358L24.7916 46.6615C24.8386 46.3021 24.9397 45.9505 25.0985 45.6257L25.2933 45.3151C25.378 45.1063 25.4938 44.917 25.6365 44.7452L25.9217 44.5043L26.3582 44.1057L27.6299 43.6422C28.8086 43.346 30.0562 43.6612 30.9488 44.4857L42.5733 55.5453C43.4166 56.3569 44.606 56.7002 45.751 56.4711L61.5579 53.177C62.8927 52.8958 64.2723 53.3854 65.1326 54.4406C65.9698 55.5077 66.1129 56.9613 65.5007 58.1734L58.1007 72.9846Z" fill="url(#paint0_linear_2001_130)"/>
<g opacity="0.5" filter="url(#filter0_f_2001_130)">
<path fill-rule="evenodd" clip-rule="evenodd" d="M44.1784 64.9508C37.2651 64.9508 31.6543 70.5629 31.6543 77.4749C31.6543 84.3894 37.2651 89.999 44.1784 89.999C51.1042 89.999 56.7024 84.3894 56.7024 77.4749C56.7024 70.5629 51.1042 64.9508 44.1784 64.9508Z" fill="#FF3D22"/>
</g>
<foreignObject x="11.0866" y="-7.3286" width="129.498" height="131.029"><div xmlns="http://www.w3.org/1999/xhtml" style="backdrop-filter:blur(12px);clip-path:url(#bgblur_0_2001_130_clip_path);height:100%;width:100%"></div></foreignObject><path data-figma-bg-blur-radius="24" d="M83.9646 17.6054C83.9813 17.6096 83.9979 17.6149 84.0141 17.6208C85.5214 18.1703 86.6761 19.3941 87.1354 20.9194L87.2179 21.2281L87.2191 21.2355L91.5591 41.1464L91.5596 41.1485C91.8333 42.4397 92.7258 43.5147 93.9405 44.0275L93.9415 44.0277L112.906 51.8289L112.905 51.8287C114.571 52.5098 115.748 54.0107 116.027 55.768L116.072 56.1226L116.073 56.1328C116.206 58.045 115.22 59.8587 113.544 60.7907L113.543 60.7896L95.2116 71.0867C94.0839 71.7399 93.3463 72.9076 93.237 74.2084L91.8615 94.5771L91.8613 94.5781C91.7299 96.5002 90.4865 98.1661 88.6814 98.8418L88.6807 98.8406C86.9026 99.5556 84.8766 99.1842 83.4609 97.8986L83.4607 97.8995L68.2197 84.3439L68.2164 84.3411C67.8059 83.9696 67.3223 83.6877 66.7949 83.5066L66.5662 83.4351L65.5537 83.1806C65.2317 83.1518 64.9064 83.1754 64.5963 83.2562L64.5868 83.2579L44.7336 88.0414L44.7251 88.0433C43.6469 88.2835 42.5191 88.1818 41.4986 87.744L41.4858 87.7388L41.486 87.7379C39.0067 86.5913 37.8929 83.6751 38.9767 81.1665L38.9795 81.1591L38.9805 81.1594L47.4009 62.5599C47.9228 61.349 47.8263 59.9615 47.1424 58.8358L36.3249 41.3813C35.3191 39.7567 35.3425 37.7017 36.3892 36.1041C37.4145 34.5136 39.2349 33.6216 41.1207 33.7919L41.1267 33.7924L61.5263 35.8825C61.5331 35.8832 61.5402 35.8837 61.5469 35.8847C62.913 36.0819 64.2867 35.5656 65.187 34.5177L78.3248 18.92L78.3333 18.91C78.6718 18.5285 79.071 18.1949 79.5201 17.9375L79.5664 17.9139L79.964 17.7379C80.2334 17.5646 80.5208 17.4366 80.8219 17.3493L80.9088 17.3319L81.3608 17.2844L82.1037 17.177L82.2006 17.1722C82.2332 17.1738 82.2658 17.1785 82.2977 17.1865L83.9646 17.6054Z" fill="#FFAC95" fill-opacity="0.4" stroke="url(#paint1_linear_2001_130)" stroke-linecap="round" stroke-linejoin="round"/>
<defs>
<filter id="filter0_f_2001_130" x="11.6543" y="44.9508" width="65.0481" height="65.0481" filterUnits="userSpaceOnUse" color-interpolation-filters="sRGB">
<feFlood flood-opacity="0" result="BackgroundImageFix"/>
<feBlend mode="normal" in="SourceGraphic" in2="BackgroundImageFix" result="shape"/>
<feGaussianBlur stdDeviation="10" result="effect1_foregroundBlur_2001_130"/>
</filter>
<clipPath id="bgblur_0_2001_130_clip_path" transform="translate(-11.0866 7.3286)"><path d="M83.9646 17.6054C83.9813 17.6096 83.9979 17.6149 84.0141 17.6208C85.5214 18.1703 86.6761 19.3941 87.1354 20.9194L87.2179 21.2281L87.2191 21.2355L91.5591 41.1464L91.5596 41.1485C91.8333 42.4397 92.7258 43.5147 93.9405 44.0275L93.9415 44.0277L112.906 51.8289L112.905 51.8287C114.571 52.5098 115.748 54.0107 116.027 55.768L116.072 56.1226L116.073 56.1328C116.206 58.045 115.22 59.8587 113.544 60.7907L113.543 60.7896L95.2116 71.0867C94.0839 71.7399 93.3463 72.9076 93.237 74.2084L91.8615 94.5771L91.8613 94.5781C91.7299 96.5002 90.4865 98.1661 88.6814 98.8418L88.6807 98.8406C86.9026 99.5556 84.8766 99.1842 83.4609 97.8986L83.4607 97.8995L68.2197 84.3439L68.2164 84.3411C67.8059 83.9696 67.3223 83.6877 66.7949 83.5066L66.5662 83.4351L65.5537 83.1806C65.2317 83.1518 64.9064 83.1754 64.5963 83.2562L64.5868 83.2579L44.7336 88.0414L44.7251 88.0433C43.6469 88.2835 42.5191 88.1818 41.4986 87.744L41.4858 87.7388L41.486 87.7379C39.0067 86.5913 37.8929 83.6751 38.9767 81.1665L38.9795 81.1591L38.9805 81.1594L47.4009 62.5599C47.9228 61.349 47.8263 59.9615 47.1424 58.8358L36.3249 41.3813C35.3191 39.7567 35.3425 37.7017 36.3892 36.1041C37.4145 34.5136 39.2349 33.6216 41.1207 33.7919L41.1267 33.7924L61.5263 35.8825C61.5331 35.8832 61.5402 35.8837 61.5469 35.8847C62.913 36.0819 64.2867 35.5656 65.187 34.5177L78.3248 18.92L78.3333 18.91C78.6718 18.5285 79.071 18.1949 79.5201 17.9375L79.5664 17.9139L79.964 17.7379C80.2334 17.5646 80.5208 17.4366 80.8219 17.3493L80.9088 17.3319L81.3608 17.2844L82.1037 17.177L82.2006 17.1722C82.2332 17.1738 82.2658 17.1785 82.2977 17.1865L83.9646 17.6054Z"/>
</clipPath><linearGradient id="paint0_linear_2001_130" x1="9.21271" y1="68.1216" x2="75.5567" y2="130.282" gradientUnits="userSpaceOnUse">
<stop stop-color="#FFA78F"/>
<stop offset="1" stop-color="#F23E2C"/>
</linearGradient>
<linearGradient id="paint1_linear_2001_130" x1="54.0936" y1="19.9352" x2="85.9815" y2="93.6844" gradientUnits="userSpaceOnUse">
<stop stop-color="white" stop-opacity="0.25"/>
<stop offset="1" stop-color="white" stop-opacity="0"/>
</linearGradient>
</defs>
</svg>
