<svg width="120" height="120" viewBox="0 0 120 120" fill="none" xmlns="http://www.w3.org/2000/svg">
<path fill-rule="evenodd" clip-rule="evenodd" d="M32.3507 20.3701C29.1787 19.3021 25.8096 20.233 24.0839 22.962C23.417 24.1208 22.9818 25.3607 22.5633 26.556L22.1785 27.642C20.824 31.2425 16.8635 49.8383 16.5999 53.8357L16.4937 55.0602C16.3781 56.2927 16.2564 57.5674 16.3822 59.0138C16.7942 62.4539 19.2155 65.4112 22.4481 66.4999C22.55 66.5343 22.6521 66.5691 22.7672 66.605C24.5525 67.2062 26.6917 66.9345 27.9633 66.4983L40.2908 62.5692L45.7965 64.4231C50.0458 65.854 53.7097 64.3063 55.1294 60.4803C56.6352 56.683 57.9757 49.749 58.2303 45.9227C58.4244 41.9139 55.7268 38.1825 51.6749 36.818L46.1694 34.9631L37.2345 23.9915C36.1638 22.6337 34.1211 20.9605 32.3507 20.3701ZM12.9107 23.5304C12.111 22.6907 10.798 22.4841 9.98895 23.0616C5.56129 26.2008 2.39029 31.1734 1.06217 37.0562C-0.266829 42.943 0.384054 49.1347 2.89379 54.491C3.16703 55.0757 3.72817 55.5535 4.39347 55.7661C4.80601 55.8979 5.22864 55.9184 5.61711 55.8267C6.6587 55.5732 7.12881 54.5699 6.67026 53.585C4.50005 48.9491 3.94938 43.5385 5.12012 38.3527C6.29044 33.1692 9.04518 28.8156 12.8755 26.0975C13.6869 25.5205 13.7031 24.3701 12.9107 23.5304ZM17.5388 30.3826C16.7208 29.5391 15.3964 29.3172 14.5773 29.8844C11.7006 31.875 9.65372 35.0415 8.81785 38.8021C7.98201 42.5628 8.44106 46.5422 10.1058 50.0053C10.3888 50.5912 10.9574 51.0719 11.6319 51.2907C12.0503 51.4263 12.4812 51.4525 12.8736 51.3652C13.925 51.1235 14.3929 50.1263 13.9188 49.1419C12.6008 46.399 12.2506 43.2 12.9317 40.1359C13.6132 37.0699 15.2419 34.5148 17.5201 32.938C18.3387 32.3727 18.3465 31.227 17.5388 30.3826Z" fill="url(#paint0_linear_2001_585)"/>
<mask id="path-2-outside-1_2001_585" maskUnits="userSpaceOnUse" x="30.8038" y="9.74826" width="92.3624" height="103.739" fill="black">
<rect fill="white" x="30.8038" y="9.74826" width="92.3624" height="103.739"/>
<path fill-rule="evenodd" clip-rule="evenodd" d="M65.4061 32.6946C66.9351 30.7556 69.8517 28.3665 72.3801 27.5235C76.9101 25.998 81.7211 27.327 84.1857 31.2243C85.1383 32.8794 85.759 34.6507 86.3568 36.358L86.9072 37.9083C88.8415 43.0501 94.4973 69.606 94.8739 75.3149L95.0265 77.0628C95.1916 78.8231 95.364 80.6441 95.1843 82.7101C94.596 87.6228 91.138 91.8461 86.5215 93.4008C86.3761 93.4498 86.2306 93.4993 86.0662 93.5505C83.5166 94.4091 80.4622 94.0212 78.6462 93.3983L61.0418 87.7872L53.1788 90.4351C47.1102 92.4786 41.8777 90.2679 39.8502 84.8039C37.6999 79.3809 35.7859 69.4788 35.4224 64.0144C35.145 58.2895 38.9968 52.9606 44.7832 51.0118L52.6462 48.3639L65.4061 32.6946ZM100.142 32.0361C101.284 30.8368 103.159 30.5427 104.315 31.3676C110.638 35.8506 115.167 42.9508 117.063 51.3519C118.961 59.7588 118.032 68.6013 114.448 76.2505C114.058 77.0857 113.257 77.7683 112.306 78.072C111.717 78.2604 111.113 78.2895 110.558 78.1585C109.07 77.7963 108.399 76.3632 109.054 74.9564C112.153 68.3361 112.94 60.6105 111.268 53.2048C109.597 45.8019 105.662 39.5849 100.192 35.7031C99.033 34.8791 99.0106 33.2353 100.142 32.0361ZM93.5326 41.8221C94.7007 40.6175 96.5921 40.3009 97.7619 41.1107C101.87 43.9535 104.794 48.4757 105.987 53.8464C107.181 59.217 106.525 64.8992 104.148 69.8448C103.744 70.6814 102.932 71.3678 101.969 71.6802C101.371 71.8739 100.757 71.9108 100.197 71.7862C98.6948 71.4412 98.026 70.0187 98.7031 68.6128C100.586 64.6955 101.085 60.127 100.113 55.751C99.1394 51.3722 96.8133 47.7235 93.5598 45.4716C92.3908 44.6644 92.3795 43.028 93.5326 41.8221Z"/>
</mask>
<path fill-rule="evenodd" clip-rule="evenodd" d="M65.4061 32.6946C66.9351 30.7556 69.8517 28.3665 72.3801 27.5235C76.9101 25.998 81.7211 27.327 84.1857 31.2243C85.1383 32.8794 85.759 34.6507 86.3568 36.358L86.9072 37.9083C88.8415 43.0501 94.4973 69.606 94.8739 75.3149L95.0265 77.0628C95.1916 78.8231 95.364 80.6441 95.1843 82.7101C94.596 87.6228 91.138 91.8461 86.5215 93.4008C86.3761 93.4498 86.2306 93.4993 86.0662 93.5505C83.5166 94.4091 80.4622 94.0212 78.6462 93.3983L61.0418 87.7872L53.1788 90.4351C47.1102 92.4786 41.8777 90.2679 39.8502 84.8039C37.6999 79.3809 35.7859 69.4788 35.4224 64.0144C35.145 58.2895 38.9968 52.9606 44.7832 51.0118L52.6462 48.3639L65.4061 32.6946ZM100.142 32.0361C101.284 30.8368 103.159 30.5427 104.315 31.3676C110.638 35.8506 115.167 42.9508 117.063 51.3519C118.961 59.7588 118.032 68.6013 114.448 76.2505C114.058 77.0857 113.257 77.7683 112.306 78.072C111.717 78.2604 111.113 78.2895 110.558 78.1585C109.07 77.7963 108.399 76.3632 109.054 74.9564C112.153 68.3361 112.94 60.6105 111.268 53.2048C109.597 45.8019 105.662 39.5849 100.192 35.7031C99.033 34.8791 99.0106 33.2353 100.142 32.0361ZM93.5326 41.8221C94.7007 40.6175 96.5921 40.3009 97.7619 41.1107C101.87 43.9535 104.794 48.4757 105.987 53.8464C107.181 59.217 106.525 64.8992 104.148 69.8448C103.744 70.6814 102.932 71.3678 101.969 71.6802C101.371 71.8739 100.757 71.9108 100.197 71.7862C98.6948 71.4412 98.026 70.0187 98.7031 68.6128C100.586 64.6955 101.085 60.127 100.113 55.751C99.1394 51.3722 96.8133 47.7235 93.5598 45.4716C92.3908 44.6644 92.3795 43.028 93.5326 41.8221Z" fill="#FF749F" fill-opacity="0.35"/>
<path d="M65.4061 32.6946L66.0375 33.3266C66.0421 33.321 66.0466 33.3154 66.0511 33.3097L65.4061 32.6946ZM72.3801 27.5235L72.47 28.543L72.4728 28.542L72.3801 27.5235ZM84.1857 31.2243L85.0064 30.5244C85.0008 30.5147 84.995 30.5051 84.9891 30.4958L84.1857 31.2243ZM86.3568 36.358L85.4701 36.913L85.4714 36.9167L86.3568 36.358ZM86.9072 37.9083L86.0217 38.4669C86.0236 38.4722 86.0255 38.4775 86.0275 38.4828L86.9072 37.9083ZM94.8739 75.3149L93.934 75.6035C93.9345 75.6113 93.9351 75.619 93.9358 75.6267L94.8739 75.3149ZM95.0265 77.0628L94.0883 77.3746L94.089 77.3816L95.0265 77.0628ZM95.1843 82.7101L96.118 82.6392C96.1196 82.6259 96.121 82.6125 96.1221 82.5993L95.1843 82.7101ZM86.5215 93.4008L86.6142 94.4194V94.4194L86.5215 93.4008ZM86.0662 93.5505L85.995 92.525C85.9878 92.5272 85.9806 92.5295 85.9735 92.5319L86.0662 93.5505ZM78.6462 93.3983L79.0772 92.3714C79.0723 92.3697 79.0674 92.3681 79.0625 92.3665L78.6462 93.3983ZM61.0418 87.7872L61.4581 86.7554C61.3004 86.7051 61.1241 86.7097 60.9491 86.7686L61.0418 87.7872ZM53.1788 90.4351L53.2715 91.4537L53.2715 91.4537L53.1788 90.4351ZM39.8502 84.8039L40.7313 84.2332C40.729 84.2269 40.7266 84.2208 40.7242 84.2146L39.8502 84.8039ZM35.4224 64.0144L34.4814 64.2836C34.4817 64.2903 34.4821 64.297 34.4825 64.3036L35.4224 64.0144ZM44.7832 51.0118L44.6905 49.9933L44.6905 49.9933L44.7832 51.0118ZM52.6462 48.3639L52.7388 49.3825C52.9393 49.315 53.1281 49.1795 53.2776 48.9959L52.6462 48.3639ZM100.142 32.0361L99.5805 31.3248L99.5763 31.3293L100.142 32.0361ZM104.315 31.3676L103.705 32.3026L103.707 32.3039L104.315 31.3676ZM117.063 51.3519L117.98 50.9016L117.98 50.9016L117.063 51.3519ZM114.448 76.2505L113.633 75.9106L113.633 75.9121L114.448 76.2505ZM112.306 78.072L112.385 79.0953L112.385 79.0953L112.306 78.072ZM110.558 78.1585L110.19 79.2038L110.195 79.2049L110.558 78.1585ZM109.054 74.9564L108.239 74.6169L108.238 74.6194L109.054 74.9564ZM111.268 53.2048L112.185 52.7546L112.185 52.7546L111.268 53.2048ZM100.192 35.7031L99.583 36.6388L99.5835 36.6392L100.192 35.7031ZM93.5326 41.8221L92.9793 41.1021L92.9728 41.1089L93.5326 41.8221ZM97.7619 41.1107L97.1603 42.0515L97.1605 42.0516L97.7619 41.1107ZM105.987 53.8464L106.905 53.3994L106.905 53.3994L105.987 53.8464ZM104.148 69.8448L104.955 70.2001L104.957 70.1974L104.148 69.8448ZM101.969 71.6802L102.051 72.7022L102.051 72.7022L101.969 71.6802ZM100.197 71.7862L99.8375 72.8337L99.8424 72.8348L100.197 71.7862ZM98.7031 68.6128L99.5113 68.9663L99.5118 68.9653L98.7031 68.6128ZM100.113 55.751L101.03 55.304V55.304L100.113 55.751ZM93.5598 45.4716L94.1614 44.5308L94.1607 44.5304L93.5598 45.4716ZM65.4061 32.6946L66.0511 33.3097C67.4546 31.5299 70.183 29.3055 72.47 28.543L72.3801 27.5235L72.2902 26.504C69.5205 27.4275 66.4156 29.9814 64.761 32.0795L65.4061 32.6946ZM72.3801 27.5235L72.4728 28.542C76.6663 27.1299 81.1182 28.3725 83.3823 31.9528L84.1857 31.2243L84.9891 30.4958C82.3241 26.2816 77.1539 24.8661 72.2875 26.5049L72.3801 27.5235ZM84.1857 31.2243L83.365 31.9241C84.2727 33.5013 84.8692 35.1968 85.4701 36.913L86.3568 36.358L87.2436 35.8031C86.6489 34.1047 86.0039 32.2576 85.0064 30.5244L84.1857 31.2243ZM86.3568 36.358L85.4714 36.9167L86.0217 38.4669L86.9072 37.9083L87.7926 37.3496L87.2423 35.7993L86.3568 36.358ZM86.9072 37.9083L86.0275 38.4828C86.9647 40.974 88.8473 48.8176 90.5554 56.8373C92.2638 64.8592 93.7519 72.8432 93.934 75.6035L94.8739 75.3149L95.8138 75.0263C95.6193 72.0777 94.0911 63.9293 92.394 55.9605C90.6963 47.9896 88.7839 39.9843 87.7868 37.3337L86.9072 37.9083ZM94.8739 75.3149L93.9358 75.6267L94.0884 77.3746L95.0265 77.0628L95.9646 76.7509L95.812 75.003L94.8739 75.3149ZM95.0265 77.0628L94.089 77.3816C94.2551 79.1528 94.4156 80.8764 94.2465 82.8209L95.1843 82.7101L96.1221 82.5993C96.3124 80.4117 96.128 78.4933 95.964 76.744L95.0265 77.0628ZM95.1843 82.7101L94.2506 82.7809C93.7279 87.1457 90.6621 90.9566 86.4288 92.3823L86.5215 93.4008L86.6142 94.4194C91.614 92.7356 95.4641 88.1 96.118 82.6392L95.1843 82.7101ZM86.5215 93.4008L86.4288 92.3823C86.2797 92.4325 86.1463 92.4778 85.995 92.525L86.0662 93.5505L86.1374 94.576C86.3149 94.5208 86.4724 94.4672 86.6142 94.4194L86.5215 93.4008ZM86.0662 93.5505L85.9735 92.5319C83.6727 93.3068 80.8061 92.9644 79.0772 92.3714L78.6462 93.3983L78.2151 94.4253C80.1182 95.078 83.3606 95.5114 86.1589 94.5691L86.0662 93.5505ZM78.6462 93.3983L79.0625 92.3665L61.4581 86.7554L61.0418 87.7872L60.6255 88.819L78.2298 94.4301L78.6462 93.3983ZM61.0418 87.7872L60.9491 86.7686L53.0861 89.4165L53.1788 90.4351L53.2715 91.4537L61.1345 88.8058L61.0418 87.7872ZM53.1788 90.4351L53.0861 89.4165C47.4016 91.3308 42.5941 89.2534 40.7313 84.2332L39.8502 84.8039L38.9692 85.3746C41.1613 91.2824 46.8189 93.6265 53.2715 91.4537L53.1788 90.4351ZM39.8502 84.8039L40.7242 84.2146C38.6162 78.8983 36.7199 69.101 36.3622 63.7252L35.4224 64.0144L34.4825 64.3036C34.852 69.8565 36.7837 79.8635 38.9763 85.3932L39.8502 84.8039ZM35.4224 64.0144L36.3634 63.7452C36.1175 58.6701 39.4965 53.842 44.8759 52.0304L44.7832 51.0118L44.6905 49.9933C38.497 52.0791 34.1725 57.9089 34.4814 64.2836L35.4224 64.0144ZM44.7832 51.0118L44.8758 52.0304L52.7388 49.3825L52.6462 48.3639L52.5535 47.3454L44.6905 49.9933L44.7832 51.0118ZM52.6462 48.3639L53.2776 48.9959L66.0375 33.3266L65.4061 32.6946L64.7746 32.0626L52.0147 47.7319L52.6462 48.3639ZM100.142 32.0361L100.704 32.7474C101.458 31.9556 102.848 31.6908 103.705 32.3026L104.315 31.3676L104.924 30.4327C103.471 29.3947 101.111 29.718 99.5805 31.3248L100.142 32.0361ZM104.315 31.3676L103.707 32.3039C109.877 36.6791 114.297 43.61 116.147 51.8021L117.063 51.3519L117.98 50.9016C116.036 42.2917 111.398 35.0222 104.923 30.4313L104.315 31.3676ZM117.063 51.3519L116.147 51.8021C117.998 60.0007 117.078 68.5594 113.633 75.9106L114.448 76.2505L115.263 76.5905C118.986 68.6432 119.925 59.5168 117.98 50.9016L117.063 51.3519ZM114.448 76.2505L113.633 75.9121C113.432 76.3413 112.948 76.8186 112.228 77.0487L112.306 78.072L112.385 79.0953C113.565 78.718 114.684 77.8301 115.263 76.5889L114.448 76.2505ZM112.306 78.072L112.228 77.0487C111.793 77.1877 111.34 77.2109 110.921 77.112L110.558 78.1585L110.195 79.2049C110.886 79.3681 111.641 79.333 112.385 79.0953L112.306 78.072ZM110.558 78.1585L110.926 77.1132C109.746 76.8258 109.602 75.8676 109.87 75.2934L109.054 74.9564L108.238 74.6194C107.195 76.8587 108.395 78.7669 110.19 79.2038L110.558 78.1585ZM109.054 74.9564L109.869 75.296C113.11 68.3729 113.902 60.3631 112.185 52.7546L111.268 53.2048L110.351 53.6551C111.977 60.8578 111.196 68.2992 108.239 74.6169L109.054 74.9564ZM111.268 53.2048L112.185 52.7546C110.467 45.1468 106.425 38.7587 100.8 34.767L100.192 35.7031L99.5835 36.6392C104.899 40.411 108.726 46.457 110.351 53.6551L111.268 53.2048ZM100.192 35.7031L100.801 34.7674C100.399 34.4818 100.255 34.1028 100.25 33.7806C100.246 33.4698 100.368 33.1029 100.708 32.7429L100.142 32.0361L99.5763 31.3293C98.7844 32.1685 98.3521 33.2231 98.3658 34.24C98.3795 35.2455 98.8257 36.1003 99.583 36.6388L100.192 35.7031ZM93.5326 41.8221L94.0859 42.5421C94.879 41.7241 96.2958 41.453 97.1603 42.0515L97.7619 41.1107L98.3635 40.1699C96.8884 39.1488 94.5224 39.5108 92.9793 41.1021L93.5326 41.8221ZM97.7619 41.1107L97.1605 42.0516C101.115 44.7876 103.924 49.1389 105.07 54.2934L105.987 53.8464L106.905 53.3994C105.663 47.8126 102.626 43.1193 98.3633 40.1698L97.7619 41.1107ZM105.987 53.8464L105.07 54.2934C106.215 59.4471 105.575 64.8418 103.339 69.4922L104.148 69.8448L104.957 70.1974C107.476 64.9566 108.147 58.9869 106.905 53.3994L105.987 53.8464ZM104.148 69.8448L103.34 69.4895C103.127 69.9317 102.625 70.4188 101.887 70.6582L101.969 71.6802L102.051 72.7022C103.239 72.3169 104.36 71.4311 104.955 70.2001L104.148 69.8448ZM101.969 71.6802L101.887 70.6581C101.439 70.8034 100.974 70.8317 100.551 70.7376L100.197 71.7862L99.8424 72.8348C100.54 72.9899 101.304 72.9445 102.051 72.7022L101.969 71.6802ZM100.197 71.7862L100.556 70.7387C99.9884 70.6084 99.6408 70.2892 99.4852 69.9583C99.3366 69.6425 99.3486 69.3041 99.5113 68.9663L98.7031 68.6128L97.8949 68.2592C97.3804 69.3274 97.3883 70.4032 97.7803 71.2363C98.1652 72.0545 98.9029 72.619 99.8375 72.8336L100.197 71.7862ZM98.7031 68.6128L99.5118 68.9653C101.54 64.7443 102.049 59.8875 101.03 55.304L100.113 55.751L99.1952 56.198C100.122 60.3666 99.6309 64.6468 97.8943 68.2603L98.7031 68.6128ZM100.113 55.751L101.03 55.304C100.01 50.7161 97.5743 46.8931 94.1614 44.5308L93.5598 45.4716L92.9583 46.4125C96.0523 48.554 98.2685 52.0284 99.1952 56.198L100.113 55.751ZM93.5598 45.4716L94.1607 44.5304C93.758 44.2523 93.62 43.8831 93.6177 43.5739C93.6155 43.2747 93.7378 42.9062 94.0924 42.5353L93.5326 41.8221L92.9728 41.1089C92.1743 41.944 91.7257 42.9966 91.7331 44.0189C91.7405 45.0312 92.1927 45.8838 92.959 46.4129L93.5598 45.4716Z" fill="url(#paint1_linear_2001_585)" mask="url(#path-2-outside-1_2001_585)"/>
<defs>
<linearGradient id="paint0_linear_2001_585" x1="24.6858" y1="45.6564" x2="68.1067" y2="87.8696" gradientUnits="userSpaceOnUse">
<stop stop-color="#FF759F"/>
<stop offset="1" stop-color="#FF196E"/>
</linearGradient>
<linearGradient id="paint1_linear_2001_585" x1="45.7081" y1="47.2549" x2="97.4317" y2="88.156" gradientUnits="userSpaceOnUse">
<stop stop-color="white" stop-opacity="0.25"/>
<stop offset="1" stop-color="white" stop-opacity="0"/>
</linearGradient>
</defs>
</svg>
